<svg xmlns="http://www.w3.org/2000/svg" xmlns:xlink="http://www.w3.org/1999/xlink" width="50" zoomAndPan="magnify" viewBox="0 0 37.5 37.499999" height="50" preserveAspectRatio="xMidYMid meet" version="1.2"><defs><clipPath id="70bf5b6ced"><path d="M 4.296875 4.292969 L 32.710938 4.292969 L 32.710938 32.417969 L 4.296875 32.417969 Z M 4.296875 4.292969 "/></clipPath></defs><g id="dc85feca19"><g clip-rule="nonzero" clip-path="url(#70bf5b6ced)"><path style=" stroke:none;fill-rule:nonzero;fill:#686868;fill-opacity:1;" d="M 26.789062 4.292969 L 10.214844 4.292969 C 8.644531 4.292969 7.140625 4.914062 6.03125 6.011719 C 4.921875 7.109375 4.296875 8.597656 4.296875 10.152344 L 4.296875 26.558594 C 4.296875 28.113281 4.921875 29.601562 6.03125 30.699219 C 7.140625 31.796875 8.644531 32.414062 10.214844 32.417969 L 26.789062 32.417969 C 28.359375 32.414062 29.863281 31.796875 30.972656 30.699219 C 32.085938 29.601562 32.707031 28.113281 32.710938 26.558594 L 32.710938 10.152344 C 32.707031 8.597656 32.085938 7.109375 30.972656 6.011719 C 29.863281 4.914062 28.359375 4.292969 26.789062 4.292969 Z M 12.582031 30.074219 L 12.582031 28.902344 C 12.582031 27.347656 13.207031 25.859375 14.316406 24.757812 C 15.425781 23.660156 16.933594 23.042969 18.503906 23.042969 C 20.074219 23.042969 21.578125 23.660156 22.6875 24.757812 C 23.800781 25.859375 24.421875 27.347656 24.421875 28.902344 L 24.421875 30.074219 Z M 30.34375 26.558594 C 30.34375 27.492188 29.96875 28.386719 29.300781 29.042969 C 28.636719 29.703125 27.734375 30.074219 26.789062 30.074219 L 26.789062 28.902344 C 26.789062 26.726562 25.917969 24.640625 24.363281 23.101562 C 22.808594 21.5625 20.703125 20.699219 18.503906 20.699219 C 16.304688 20.699219 14.199219 21.5625 12.644531 23.101562 C 11.089844 24.640625 10.214844 26.726562 10.214844 28.902344 L 10.214844 30.074219 C 9.273438 30.074219 8.371094 29.703125 7.703125 29.042969 C 7.039062 28.386719 6.664062 27.492188 6.664062 26.558594 L 6.664062 10.152344 C 6.664062 9.21875 7.039062 8.324219 7.703125 7.667969 C 8.371094 7.007812 9.273438 6.636719 10.214844 6.636719 L 26.789062 6.636719 C 27.734375 6.636719 28.636719 7.007812 29.300781 7.667969 C 29.96875 8.324219 30.34375 9.21875 30.34375 10.152344 Z M 30.34375 26.558594 "/></g><path style=" stroke:none;fill-rule:nonzero;fill:#686868;fill-opacity:1;" d="M 18.503906 8.980469 C 17.566406 8.980469 16.652344 9.253906 15.871094 9.769531 C 15.09375 10.285156 14.488281 11.015625 14.128906 11.875 C 13.769531 12.730469 13.675781 13.671875 13.859375 14.582031 C 14.042969 15.492188 14.492188 16.328125 15.15625 16.980469 C 15.816406 17.636719 16.660156 18.085938 17.578125 18.265625 C 18.5 18.445312 19.449219 18.351562 20.316406 18 C 21.179688 17.644531 21.921875 17.042969 22.441406 16.273438 C 22.960938 15.5 23.238281 14.59375 23.238281 13.667969 C 23.238281 12.425781 22.738281 11.230469 21.851562 10.351562 C 20.964844 9.472656 19.757812 8.980469 18.503906 8.980469 Z M 18.503906 16.011719 C 18.035156 16.011719 17.578125 15.875 17.1875 15.617188 C 16.796875 15.359375 16.496094 14.992188 16.316406 14.566406 C 16.136719 14.136719 16.089844 13.664062 16.179688 13.210938 C 16.273438 12.757812 16.496094 12.339844 16.828125 12.011719 C 17.160156 11.683594 17.582031 11.460938 18.042969 11.367188 C 18.5 11.277344 18.976562 11.324219 19.410156 11.503906 C 19.84375 11.679688 20.210938 11.980469 20.472656 12.367188 C 20.730469 12.75 20.871094 13.203125 20.871094 13.667969 C 20.871094 14.289062 20.621094 14.886719 20.175781 15.324219 C 19.734375 15.765625 19.132812 16.011719 18.503906 16.011719 Z M 18.503906 16.011719 "/></g></svg>