<svg width="53" height="56" viewBox="0 0 53 56" fill="none" xmlns="http://www.w3.org/2000/svg">
<path fill-rule="evenodd" clip-rule="evenodd" d="M24.8119 0.158765C22.9938 0.505817 21.4095 1.40299 20.0164 2.87435C18.5768 4.39495 17.769 6.02408 17.4258 8.09895C16.6086 13.0379 19.5505 17.8118 24.238 19.1539C25.4393 19.4977 27.6155 19.4947 28.8251 19.1474C34.7968 17.4327 37.5248 10.2963 34.3636 4.65852C33.7843 3.62535 32.2725 2.0286 31.2944 1.41666C29.3012 0.169815 27.046 -0.26783 24.8119 0.158765ZM28.6235 1.95989C31.2197 2.81384 33.0558 4.76486 33.8695 7.53428C34.2154 8.71121 34.2154 10.7338 33.8695 11.9107C33.0566 14.6772 31.1909 16.6478 28.5717 17.5064C27.4574 17.8718 25.5426 17.8718 24.4283 17.5064C21.8091 16.6478 19.9434 14.6772 19.1305 11.9107C18.7846 10.7336 18.7846 8.71111 19.1306 7.53428C20.0346 4.45928 22.3091 2.29633 25.2324 1.73155C26.0496 1.57367 27.8098 1.69227 28.6235 1.95989ZM28.0908 9.36692C26.6923 10.7962 25.5086 11.9654 25.4602 11.9654C25.4119 11.9654 24.9945 11.6084 24.5325 11.1722C23.675 10.3623 23.4065 10.2463 22.9663 10.4951C22.6663 10.6646 22.528 11.1226 22.673 11.4659C22.7383 11.6202 23.3228 12.2512 23.972 12.8681C25.5358 14.3539 25.4379 14.3574 27.0041 12.7615C32.2156 7.45102 32.0324 7.68002 31.5682 7.0567C31.4099 6.844 31.2591 6.7684 30.9935 6.7684C30.664 6.7684 30.4178 6.98876 28.0908 9.36692ZM3.21674 8.95859C1.97774 9.14941 0.758017 10.1805 0.274166 11.4461L0.0337426 12.0748L0.00515288 28.0969C-0.0122496 37.8874 0.0152007 44.4132 0.0757986 44.8753C0.25811 46.2644 0.963428 47.3088 2.17383 47.9822L2.72698 48.2899L9.69315 48.3202L16.6593 48.3505V49.9717V51.5927L15.6733 52.9775L14.6873 54.3622H14.128C13.4029 54.3622 13.2461 54.4339 13.0848 54.8388C12.9351 55.215 13.0298 55.6192 13.3227 55.8543C13.4659 55.9692 16.014 55.9972 26.5845 55.9999C34.7695 56.0021 39.7387 55.964 39.8553 55.8982C39.9576 55.8403 40.0981 55.6484 40.1674 55.4718C40.2709 55.2076 40.2649 55.0928 40.1336 54.8244C39.9358 54.4205 39.7965 54.3622 39.0274 54.3622H38.4162L37.4303 52.9775L36.4443 51.5927V49.9717V48.3507L43.3586 48.3202L50.273 48.2899L50.8427 47.9818C52.0109 47.3501 52.7428 46.2578 52.9242 44.8753C52.9848 44.4132 53.0123 37.8874 52.9948 28.0969L52.9663 12.0748L52.7164 11.4184C52.3723 10.5144 51.432 9.52403 50.5838 9.17173C49.9947 8.92719 49.8345 8.91341 47.5133 8.90783C45.2461 8.90236 45.0481 8.91735 44.8459 9.11035C44.6989 9.25061 44.6276 9.45072 44.6276 9.7225C44.6276 10.4444 44.6963 10.4641 47.3726 10.5086C49.5635 10.5451 49.7884 10.567 50.1694 10.7812C50.6486 11.0506 50.9466 11.3712 51.2191 11.9107C51.4047 12.2783 51.4136 12.8861 51.4405 27.0915L51.4686 41.8894H30.4469C18.885 41.8894 9.34976 41.92 9.25757 41.9573C9.00793 42.0585 8.77248 42.6119 8.84654 42.9233C8.98566 43.5087 7.68088 43.4718 30.3227 43.5305L51.4125 43.5853L51.3826 44.3462C51.3459 45.2827 51.0773 45.8471 50.4454 46.3157L49.9962 46.6488H26.5H3.00376L2.55461 46.3157C1.92274 45.8471 1.65414 45.2827 1.61737 44.3462L1.58753 43.5853L4.06894 43.5558C6.4479 43.5277 6.56019 43.5168 6.78808 43.2906C7.12494 42.9564 7.10868 42.4117 6.75286 42.1162C6.4941 41.9011 6.35198 41.8894 4.00565 41.8894H1.53139L1.55946 27.0915L1.58753 12.2937L1.81056 11.856C2.0689 11.3489 2.37303 11.0343 2.88236 10.7474C3.22109 10.5565 3.64507 10.5395 9.32625 10.4884C15.255 10.4351 15.4114 10.4282 15.564 10.2149C15.8884 9.76112 15.7036 9.17599 15.168 8.96089C14.8364 8.82774 4.07992 8.82566 3.21674 8.95859ZM37.8003 8.96242C37.2633 9.19788 37.1095 9.82414 37.4842 10.2489C37.6895 10.4817 37.761 10.4884 40.0578 10.4884C42.2148 10.4884 42.4351 10.471 42.5916 10.2883C42.8375 10.0013 42.8124 9.36604 42.5452 9.11035C42.3477 8.92139 42.1275 8.89962 40.1886 8.87741C38.9404 8.86319 37.946 8.89853 37.8003 8.96242ZM11.5836 22.9796C11.0489 23.1412 10.5979 23.5487 10.3465 24.0973C10.1328 24.5635 10.1251 24.7022 10.1545 27.5922L10.1852 30.6018L10.4959 31.0661C10.6669 31.3216 10.9932 31.6334 11.221 31.7591C11.6272 31.9832 11.7688 31.9882 18.3777 32.0173C25.0845 32.0468 25.1214 32.0458 25.3957 31.8179C25.7404 31.5314 25.7738 30.9471 25.4641 30.62C25.2613 30.4058 25.1189 30.4012 18.6348 30.4012C12.7529 30.4012 11.9945 30.382 11.8499 30.2293C11.6062 29.9718 11.6062 24.9224 11.8499 24.6649C11.996 24.5107 13.1656 24.493 23.1746 24.493H34.3364L34.5617 24.2398C34.8396 23.9272 34.8503 23.5059 34.5888 23.1649L34.3909 22.9065L23.1685 22.8883C15.9345 22.8766 11.8173 22.9091 11.5836 22.9796ZM36.9999 22.9756C36.7789 23.0929 36.5479 23.5 36.5479 23.7722C36.5479 23.8515 36.6445 24.0462 36.7626 24.2047L36.9772 24.493H38.9822C40.6669 24.493 41.0132 24.5205 41.1501 24.6649C41.3938 24.9224 41.3938 29.9718 41.1501 30.2293C41.0153 30.3716 40.6954 30.4012 39.2969 30.4012C37.4411 30.4012 37.2507 30.4605 37.1115 31.0823C37.0577 31.3221 37.1072 31.4465 37.3645 31.7183L37.6845 32.0563L39.5245 32.0219C41.6422 31.9825 41.959 31.8809 42.5041 31.0659L42.8148 30.6012V27.4471V24.293L42.5041 23.8283C41.9441 22.991 41.6696 22.9102 39.2929 22.8824C37.9785 22.867 37.1403 22.9011 36.9999 22.9756ZM27.8228 29.194C27.6804 29.3122 27.5105 29.5462 27.4452 29.7137C27.3801 29.8812 27.2395 31.5692 27.1329 33.4647C26.9167 37.3114 26.9281 37.429 27.5555 37.8448C28.0677 38.1842 28.6151 38.0859 29.3833 37.5168C29.7271 37.2621 30.0535 37.0829 30.1086 37.1189C30.1637 37.1549 30.5357 37.6916 30.9351 38.3115C31.7001 39.4984 31.9426 39.7012 32.598 39.7012C32.9173 39.7012 33.1998 39.5462 34.1378 38.8568C34.7697 38.3925 35.3661 37.8704 35.4633 37.6967C35.766 37.1555 35.6201 36.6736 34.7544 35.354L33.9753 34.1666L34.7025 33.638C35.5676 33.0091 35.8075 32.5665 35.6275 31.9317C35.5659 31.7146 35.4008 31.4232 35.2607 31.2842C34.9376 30.9636 29.1344 28.9842 28.508 28.9811C28.2385 28.9796 27.9866 29.058 27.8228 29.194ZM31.498 31.5822C32.6803 31.9791 33.6474 32.3317 33.6474 32.3655C33.6474 32.3994 33.339 32.6481 32.9619 32.9181C32.258 33.4222 32.0374 33.7614 32.1561 34.1566C32.1933 34.2806 32.5908 34.9414 33.0392 35.6252C33.4877 36.309 33.8546 36.913 33.8546 36.9677C33.8546 37.0224 33.5685 37.2723 33.2189 37.5231C32.721 37.8802 32.5654 37.9464 32.5011 37.828C32.1247 37.1355 30.8028 35.2497 30.6173 35.1409C30.2679 34.9359 30.2159 34.9525 29.3619 35.5413C28.6292 36.0466 28.5716 36.0685 28.5708 35.8422C28.5686 35.302 28.7959 31.2046 28.8409 30.9694C28.8797 30.7675 28.9353 30.7313 29.119 30.7887C29.2452 30.8281 30.3158 31.1851 31.498 31.5822ZM34.8905 50.2406V52.1366L35.6605 53.2221L36.4307 54.3075L31.525 54.336C28.8269 54.3515 24.3814 54.3515 21.6462 54.336L16.6729 54.3075L17.443 53.2221L18.2131 52.1366V50.2406V48.3446H26.5518H34.8905V50.2406Z" fill="url(#paint0_linear_2028_2425)"/>
<defs>
<linearGradient id="paint0_linear_2028_2425" x1="0" y1="0" x2="58.0811" y2="4.86885" gradientUnits="userSpaceOnUse">
<stop stop-color="#FF0037"/>
<stop offset="1" stop-color="#FF4870"/>
</linearGradient>
</defs>
</svg>
