<svg xmlns="http://www.w3.org/2000/svg" xmlns:xlink="http://www.w3.org/1999/xlink" width="50" zoomAndPan="magnify" viewBox="0 0 37.5 37.499999" height="50" preserveAspectRatio="xMidYMid meet" version="1.2"><defs><clipPath id="4b598db630"><path d="M 3.699219 3.699219 L 33.304688 3.699219 L 33.304688 33.304688 L 3.699219 33.304688 Z M 3.699219 3.699219 "/></clipPath></defs><g id="9d2df4ae6d"><g clip-rule="nonzero" clip-path="url(#4b598db630)"><path style=" stroke:none;fill-rule:nonzero;fill:#686868;fill-opacity:1;" d="M 24.671875 16.085938 C 19.910156 16.085938 16.035156 19.957031 16.035156 24.71875 C 16.035156 29.453125 19.910156 33.304688 24.671875 33.304688 C 29.429688 33.304688 33.304688 29.433594 33.304688 24.671875 C 33.304688 19.9375 29.429688 16.085938 24.671875 16.085938 Z M 24.671875 30.839844 C 21.269531 30.839844 18.503906 28.09375 18.503906 24.71875 C 18.503906 21.316406 21.269531 18.550781 24.671875 18.550781 C 28.070312 18.550781 30.839844 21.296875 30.839844 24.671875 C 30.839844 28.070312 28.070312 30.839844 24.671875 30.839844 Z M 26.777344 25.03125 C 27.257812 25.515625 27.257812 26.292969 26.777344 26.777344 C 26.535156 27.015625 26.21875 27.136719 25.90625 27.136719 C 25.589844 27.136719 25.273438 27.015625 25.03125 26.777344 L 23.800781 25.542969 C 23.566406 25.3125 23.4375 24.996094 23.4375 24.671875 L 23.4375 22.203125 C 23.4375 21.523438 23.988281 20.96875 24.671875 20.96875 C 25.351562 20.96875 25.90625 21.523438 25.90625 22.203125 L 25.90625 24.160156 Z M 33.304688 12.335938 L 33.304688 14.800781 C 33.304688 15.484375 32.753906 16.035156 32.074219 16.035156 C 31.390625 16.035156 30.839844 15.484375 30.839844 14.800781 L 30.839844 12.335938 C 30.839844 10.296875 29.179688 8.636719 27.136719 8.636719 L 9.867188 8.636719 C 7.828125 8.636719 6.167969 10.296875 6.167969 12.335938 L 6.167969 13.570312 L 17.269531 13.570312 C 17.949219 13.570312 18.503906 14.121094 18.503906 14.800781 C 18.503906 15.484375 17.949219 16.035156 17.269531 16.035156 L 6.167969 16.035156 L 6.167969 27.136719 C 6.167969 29.179688 7.828125 30.839844 9.867188 30.839844 L 14.800781 30.839844 C 15.484375 30.839844 16.035156 31.390625 16.035156 32.074219 C 16.035156 32.753906 15.484375 33.304688 14.800781 33.304688 L 9.867188 33.304688 C 6.46875 33.304688 3.699219 30.539062 3.699219 27.136719 L 3.699219 12.335938 C 3.699219 8.933594 6.46875 6.167969 9.867188 6.167969 L 11.101562 6.167969 L 11.101562 4.933594 C 11.101562 4.253906 11.65625 3.699219 12.335938 3.699219 C 13.015625 3.699219 13.570312 4.253906 13.570312 4.933594 L 13.570312 6.167969 L 23.4375 6.167969 L 23.4375 4.933594 C 23.4375 4.253906 23.988281 3.699219 24.671875 3.699219 C 25.351562 3.699219 25.90625 4.253906 25.90625 4.933594 L 25.90625 6.167969 L 27.136719 6.167969 C 30.539062 6.167969 33.304688 8.933594 33.304688 12.335938 Z M 33.304688 12.335938 "/></g></g></svg>