<svg width="16" height="16" viewBox="0 0 16 16" fill="none" xmlns="http://www.w3.org/2000/svg">
<g clip-path="url(#clip0_196_1651)">
<path d="M7.99972 0C5.87869 0.00229405 3.84519 0.845886 2.3454 2.34568C0.845606 3.84547 0.00201482 5.87897 -0.000279231 8C-0.0842792 14.382 7.43905 18.286 12.5997 14.5447C12.6739 14.4953 12.7374 14.4316 12.7865 14.3574C12.8357 14.2831 12.8694 14.1997 12.8858 14.1121C12.9022 14.0246 12.9008 13.9346 12.8819 13.8476C12.8629 13.7606 12.8267 13.6782 12.7754 13.6054C12.724 13.5327 12.6586 13.4709 12.5831 13.4238C12.5075 13.3767 12.4232 13.3452 12.3352 13.3312C12.2473 13.3172 12.1574 13.321 12.0709 13.3423C11.9844 13.3636 11.9031 13.4021 11.8317 13.4553C7.53305 16.5707 1.26639 13.3187 1.33305 8C1.69905 -0.844 14.3017 -0.842 14.6664 8V9.33333C14.6664 9.68696 14.5259 10.0261 14.2759 10.2761C14.0258 10.5262 13.6867 10.6667 13.3331 10.6667C12.9794 10.6667 12.6403 10.5262 12.3902 10.2761C12.1402 10.0261 11.9997 9.68696 11.9997 9.33333V8C11.8317 2.714 4.16705 2.71467 3.99972 8C4.00748 8.81067 4.26069 9.59995 4.72598 10.2638C5.19126 10.9277 5.84679 11.435 6.60615 11.7189C7.36552 12.0028 8.19309 12.05 8.97979 11.8542C9.76648 11.6583 10.4754 11.2288 11.0131 10.622C11.3023 11.1324 11.7517 11.5332 12.2918 11.7623C12.8318 11.9914 13.4324 12.0361 14.0004 11.8893C14.5684 11.7425 15.0721 11.4125 15.4336 10.9504C15.795 10.4883 15.994 9.91996 15.9997 9.33333V8C15.9974 5.87897 15.1538 3.84547 13.654 2.34568C12.1542 0.845886 10.1207 0.00229405 7.99972 0ZM7.99972 10.6667C7.29248 10.6667 6.6142 10.3857 6.1141 9.88562C5.61401 9.38552 5.33305 8.70725 5.33305 8C5.33305 7.29276 5.61401 6.61448 6.1141 6.11438C6.6142 5.61429 7.29248 5.33333 7.99972 5.33333C8.70696 5.33333 9.38524 5.61429 9.88534 6.11438C10.3854 6.61448 10.6664 7.29276 10.6664 8C10.6664 8.70725 10.3854 9.38552 9.88534 9.88562C9.38524 10.3857 8.70696 10.6667 7.99972 10.6667Z" fill="#686868"/>
</g>
<defs>
<clipPath id="clip0_196_1651">
<rect width="16" height="16" fill="white"/>
</clipPath>
</defs>
</svg>
