<svg width="22" height="22" viewBox="0 0 22 22" fill="none" xmlns="http://www.w3.org/2000/svg">
<path d="M11.0001 19.7083C15.1052 19.7083 17.1578 19.7083 18.4331 18.433C19.7084 17.1577 19.7084 15.1051 19.7084 11C19.7084 6.8948 19.7084 4.84223 18.4331 3.56693C17.1578 2.29163 15.1052 2.29163 11.0001 2.29163C6.89494 2.29163 4.84236 2.29163 3.56705 3.56693C2.29175 4.84224 2.29175 6.89481 2.29175 11C2.29175 15.1051 2.29175 17.1577 3.56705 18.433C4.84235 19.7083 6.89493 19.7083 11.0001 19.7083Z" stroke="#686868" stroke-width="1.5" stroke-linecap="round" stroke-linejoin="round"/>
<path d="M13.75 8.25L8.25 13.7496M13.75 13.75L8.25 8.25036" stroke="#686868" stroke-width="1.5" stroke-linecap="round" stroke-linejoin="round"/>
</svg>
