<svg xmlns="http://www.w3.org/2000/svg" xmlns:xlink="http://www.w3.org/1999/xlink" width="50" zoomAndPan="magnify" viewBox="0 0 37.5 37.499999" height="50" preserveAspectRatio="xMidYMid meet" version="1.2"><g id="cedbbf4981"><path style=" stroke:none;fill-rule:nonzero;fill:#686868;fill-opacity:1;" d="M 15.816406 31.941406 C 14.90625 31.941406 14.054688 31.601562 13.425781 30.984375 C 12.628906 30.207031 12.289062 29.019531 12.539062 27.886719 C 12.773438 26.8125 13.480469 25.992188 14.480469 25.632812 C 15.851562 25.144531 17.351562 25.527344 18.261719 26.570312 C 18.910156 27.3125 19.199219 28.3125 19.0625 29.3125 C 18.855469 30.835938 17.488281 31.941406 15.816406 31.941406 Z M 15.714844 26.933594 C 15.476562 26.933594 15.230469 26.976562 14.992188 27.0625 C 14.3125 27.304688 14.089844 27.886719 14.019531 28.210938 C 13.882812 28.835938 14.0625 29.484375 14.488281 29.902344 C 14.832031 30.238281 15.304688 30.425781 15.816406 30.425781 C 16.59375 30.425781 17.441406 29.972656 17.558594 29.109375 C 17.640625 28.53125 17.480469 27.984375 17.121094 27.566406 C 16.769531 27.164062 16.253906 26.933594 15.714844 26.933594 Z M 15.714844 26.933594 "/><path style=" stroke:none;fill-rule:nonzero;fill:#686868;fill-opacity:1;" d="M 25.835938 31.941406 C 24.921875 31.941406 24.074219 31.601562 23.445312 30.984375 C 22.648438 30.203125 22.308594 29.015625 22.554688 27.886719 C 22.792969 26.8125 23.5 25.992188 24.5 25.632812 C 25.867188 25.144531 27.371094 25.527344 28.28125 26.570312 C 28.925781 27.3125 29.21875 28.3125 29.082031 29.3125 C 28.871094 30.835938 27.507812 31.941406 25.835938 31.941406 Z M 25.730469 26.933594 C 25.492188 26.933594 25.25 26.976562 25.007812 27.0625 C 24.328125 27.304688 24.109375 27.886719 24.035156 28.210938 C 23.898438 28.835938 24.078125 29.484375 24.503906 29.902344 C 24.847656 30.238281 25.320312 30.425781 25.835938 30.425781 C 26.613281 30.425781 27.460938 29.972656 27.578125 29.109375 C 27.65625 28.53125 27.5 27.984375 27.136719 27.566406 C 26.785156 27.164062 26.273438 26.933594 25.730469 26.933594 Z M 25.730469 26.933594 "/><path style=" stroke:none;fill-rule:nonzero;fill:#686868;fill-opacity:1;" d="M 22.992188 24.4375 C 22.183594 24.4375 21.378906 24.417969 20.644531 24.402344 L 19.570312 24.378906 C 17.429688 24.351562 13.851562 24.300781 12.503906 22.453125 C 11.808594 21.496094 11.269531 19.636719 11.128906 17.710938 C 11.058594 16.757812 11.035156 15.734375 11.015625 14.742188 C 10.9375 11.148438 10.851562 7.433594 8.613281 6.792969 C 7.695312 6.53125 6.945312 6.5625 5.8125 6.613281 L 5.628906 6.621094 C 5.222656 6.640625 4.855469 6.3125 4.835938 5.894531 C 4.820312 5.476562 5.144531 5.121094 5.5625 5.105469 L 5.746094 5.09375 C 6.9375 5.042969 7.878906 5.003906 9.027344 5.332031 C 10.792969 5.835938 11.644531 7.285156 12.070312 9.15625 C 12.367188 9.152344 12.851562 9.144531 13.464844 9.136719 C 16.554688 9.09375 22.984375 9.011719 25.515625 9.070312 C 25.894531 9.078125 26.265625 9.082031 26.625 9.085938 C 29.320312 9.109375 32.105469 9.136719 32.164062 12.15625 C 32.214844 14.707031 31.347656 17.753906 31.082031 18.625 C 31.011719 18.859375 30.945312 19.089844 30.878906 19.3125 C 30.570312 20.367188 30.28125 21.359375 29.6875 22.28125 C 29.011719 23.324219 27.90625 23.996094 26.492188 24.226562 C 25.457031 24.394531 24.21875 24.4375 22.992188 24.4375 Z M 12.320312 10.667969 C 12.46875 11.945312 12.5 13.335938 12.53125 14.707031 C 12.550781 15.679688 12.574219 16.6875 12.640625 17.601562 C 12.757812 19.210938 13.207031 20.839844 13.730469 21.558594 C 14.628906 22.792969 17.980469 22.839844 19.589844 22.859375 L 20.683594 22.882812 C 22.460938 22.929688 24.671875 22.984375 26.25 22.726562 C 27.230469 22.566406 27.976562 22.128906 28.410156 21.457031 C 28.886719 20.722656 29.132812 19.871094 29.421875 18.886719 C 29.488281 18.660156 29.558594 18.421875 29.628906 18.183594 C 30.144531 16.496094 30.683594 14.03125 30.648438 12.183594 C 30.621094 10.820312 29.8125 10.632812 26.609375 10.601562 C 26.242188 10.597656 25.867188 10.59375 25.476562 10.585938 C 22.976562 10.527344 16.566406 10.613281 13.484375 10.652344 C 13.011719 10.660156 12.617188 10.664062 12.320312 10.667969 Z M 12.320312 10.667969 "/></g></svg>