<svg width="20" height="22" viewBox="0 0 20 22" fill="none" xmlns="http://www.w3.org/2000/svg">
<path d="M18.392 2.99933L16.2983 0.836917C16.0412 0.572885 15.7339 0.362853 15.3946 0.219139C15.0552 0.0754255 14.6905 0.000922562 14.322 0L9.99992 0C8.94373 0.00133331 7.9203 0.366749 7.10211 1.03466C6.28392 1.70257 5.72101 2.63213 5.50825 3.66667H5.41659C4.20146 3.66812 3.03651 4.15148 2.17729 5.0107C1.31806 5.86993 0.834707 7.03487 0.833252 8.25V17.4167C0.834707 18.6318 1.31806 19.7967 2.17729 20.656C3.03651 21.5152 4.20146 21.9985 5.41659 22H10.9166C12.1317 21.9985 13.2967 21.5152 14.1559 20.656C15.0151 19.7967 15.4985 18.6318 15.4999 17.4167V17.325C16.5345 17.1122 17.464 16.5493 18.1319 15.7311C18.7998 14.913 19.1653 13.8895 19.1666 12.8333V4.91333C19.168 4.19872 18.89 3.51186 18.392 2.99933ZM10.9166 20.1667H5.41659C4.68724 20.1667 3.98777 19.8769 3.47204 19.3612C2.95632 18.8455 2.66659 18.146 2.66659 17.4167V8.25C2.66659 7.52065 2.95632 6.82118 3.47204 6.30546C3.98777 5.78973 4.68724 5.5 5.41659 5.5V12.8333C5.41804 14.0485 5.90139 15.2134 6.76062 16.0726C7.61985 16.9319 8.78479 17.4152 9.99992 17.4167H13.6666C13.6666 18.146 13.3769 18.8455 12.8611 19.3612C12.3454 19.8769 11.6459 20.1667 10.9166 20.1667ZM14.5833 15.5833H9.99992C9.27057 15.5833 8.5711 15.2936 8.05538 14.7779C7.53965 14.2622 7.24992 13.5627 7.24992 12.8333V4.58333C7.24992 3.85399 7.53965 3.15451 8.05538 2.63879C8.5711 2.12306 9.27057 1.83333 9.99992 1.83333H13.6666V3.66667C13.6666 4.1529 13.8597 4.61921 14.2036 4.96303C14.5474 5.30685 15.0137 5.5 15.4999 5.5H17.3333V12.8333C17.3333 13.5627 17.0435 14.2622 16.5278 14.7779C16.0121 15.2936 15.3126 15.5833 14.5833 15.5833Z" fill="#686868"/>
</svg>
