<svg xmlns="http://www.w3.org/2000/svg" xmlns:xlink="http://www.w3.org/1999/xlink" width="50" zoomAndPan="magnify" viewBox="0 0 37.5 37.499999" height="50" preserveAspectRatio="xMidYMid meet" version="1.2"><defs><clipPath id="05e8600d53"><path d="M 6 5.03125 L 31 5.03125 L 31 31 L 6 31 Z M 6 5.03125 "/></clipPath></defs><g id="2e3049de96"><g clip-rule="nonzero" clip-path="url(#05e8600d53)"><path style=" stroke:none;fill-rule:nonzero;fill:#686868;fill-opacity:1;" d="M 30.789062 20.859375 L 29.191406 23.867188 C 28.953125 24.316406 28.6875 24.75 28.394531 25.164062 C 28.101562 25.582031 27.785156 25.976562 27.445312 26.351562 C 27.105469 26.730469 26.742188 27.085938 26.355469 27.417969 C 25.972656 27.746094 25.570312 28.054688 25.144531 28.335938 C 24.722656 28.617188 24.285156 28.871094 23.832031 29.101562 C 23.375 29.328125 22.910156 29.527344 22.429688 29.695312 C 21.953125 29.867188 21.464844 30.003906 20.96875 30.113281 C 20.472656 30.222656 19.972656 30.300781 19.464844 30.351562 C 18.960938 30.398438 18.453125 30.414062 17.945312 30.398438 C 17.4375 30.382812 16.933594 30.335938 16.429688 30.257812 C 15.929688 30.179688 15.433594 30.070312 14.945312 29.933594 C 14.457031 29.792969 13.976562 29.625 13.511719 29.425781 C 13.042969 29.226562 12.589844 29 12.148438 28.746094 C 11.710938 28.492188 11.289062 28.210938 10.882812 27.902344 C 10.476562 27.597656 10.09375 27.265625 9.730469 26.910156 C 9.367188 26.558594 9.023438 26.179688 8.707031 25.785156 C 8.390625 25.386719 8.097656 24.972656 7.832031 24.539062 C 7.566406 24.109375 7.328125 23.660156 7.117188 23.199219 C 6.90625 22.734375 6.726562 22.261719 6.574219 21.777344 C 6.421875 21.292969 6.300781 20.800781 6.207031 20.300781 C 6.117188 19.800781 6.058594 19.296875 6.027344 18.789062 C 6 18.28125 6.003906 17.777344 6.035156 17.269531 C 6.070312 16.761719 6.136719 16.257812 6.230469 15.761719 C 6.328125 15.261719 6.457031 14.769531 6.613281 14.289062 C 6.769531 13.804688 6.957031 13.332031 7.171875 12.871094 C 7.386719 12.414062 7.628906 11.96875 7.898438 11.539062 C 8.171875 11.109375 8.46875 10.695312 8.789062 10.300781 C 9.109375 9.910156 9.453125 9.539062 9.824219 9.1875 C 10.191406 8.835938 10.578125 8.507812 10.984375 8.207031 C 11.394531 7.902344 11.820312 7.628906 12.261719 7.378906 C 12.703125 7.128906 13.160156 6.90625 13.628906 6.710938 C 14.097656 6.519531 14.578125 6.355469 15.070312 6.222656 L 18.324219 5.339844 L 15.914062 7.699219 C 15.230469 8.371094 14.664062 9.132812 14.207031 9.976562 C 13.75 10.820312 13.425781 11.710938 13.238281 12.648438 C 13.046875 13.589844 12.996094 14.535156 13.085938 15.492188 C 13.179688 16.445312 13.40625 17.367188 13.769531 18.253906 C 14.136719 19.140625 14.621094 19.953125 15.226562 20.695312 C 15.835938 21.4375 16.535156 22.078125 17.332031 22.609375 C 18.128906 23.144531 18.988281 23.550781 19.902344 23.828125 C 20.820312 24.105469 21.761719 24.246094 22.71875 24.246094 C 24.609375 24.253906 26.351562 23.742188 27.941406 22.714844 Z M 30.789062 20.859375 "/></g></g></svg>