<svg xmlns="http://www.w3.org/2000/svg" xmlns:xlink="http://www.w3.org/1999/xlink" width="50" zoomAndPan="magnify" viewBox="0 0 37.5 37.499999" height="50" preserveAspectRatio="xMidYMid meet" version="1.2"><defs><clipPath id="2cadfbf56e"><path d="M 3.699219 4 L 33.304688 4 L 33.304688 33 L 3.699219 33 Z M 3.699219 4 "/></clipPath></defs><g id="1ebeb3c6d1"><g clip-rule="nonzero" clip-path="url(#2cadfbf56e)"><path style=" stroke:none;fill-rule:nonzero;fill:#686868;fill-opacity:1;" d="M 20.96875 16.035156 C 20.96875 17.292969 20.589844 18.457031 19.945312 19.433594 L 16.398438 15.886719 C 16.164062 15.65625 16.035156 15.339844 16.035156 15.015625 L 16.035156 9.992188 C 18.851562 10.5625 20.96875 13.050781 20.96875 16.035156 Z M 13.570312 15.527344 L 13.570312 9.992188 C 10.421875 10.632812 8.144531 13.664062 8.726562 17.105469 C 9.125 19.492188 10.96875 21.476562 13.324219 22.03125 C 15.136719 22.457031 16.851562 22.070312 18.199219 21.179688 L 14.289062 17.269531 C 13.828125 16.808594 13.570312 16.179688 13.570312 15.527344 Z M 27.136719 9.867188 L 24.671875 9.867188 C 23.988281 9.867188 23.4375 10.421875 23.4375 11.101562 C 23.4375 11.78125 23.988281 12.335938 24.671875 12.335938 L 27.136719 12.335938 C 27.820312 12.335938 28.371094 11.78125 28.371094 11.101562 C 28.371094 10.421875 27.820312 9.867188 27.136719 9.867188 Z M 27.136719 14.800781 L 24.671875 14.800781 C 23.988281 14.800781 23.4375 15.355469 23.4375 16.035156 C 23.4375 16.71875 23.988281 17.269531 24.671875 17.269531 L 27.136719 17.269531 C 27.820312 17.269531 28.371094 16.71875 28.371094 16.035156 C 28.371094 15.355469 27.820312 14.800781 27.136719 14.800781 Z M 27.136719 19.738281 L 24.671875 19.738281 C 23.988281 19.738281 23.4375 20.289062 23.4375 20.96875 C 23.4375 21.652344 23.988281 22.203125 24.671875 22.203125 L 27.136719 22.203125 C 27.820312 22.203125 28.371094 21.652344 28.371094 20.96875 C 28.371094 20.289062 27.820312 19.738281 27.136719 19.738281 Z M 33.304688 11.101562 L 33.304688 20.96875 C 33.304688 24.371094 30.539062 27.136719 27.136719 27.136719 L 19.738281 27.136719 L 19.738281 29.605469 L 24.671875 29.605469 C 25.351562 29.605469 25.90625 30.15625 25.90625 30.839844 C 25.90625 31.519531 25.351562 32.074219 24.671875 32.074219 L 12.335938 32.074219 C 11.652344 32.074219 11.101562 31.519531 11.101562 30.839844 C 11.101562 30.15625 11.652344 29.605469 12.335938 29.605469 L 17.269531 29.605469 L 17.269531 27.136719 L 9.867188 27.136719 C 6.46875 27.136719 3.699219 24.371094 3.699219 20.96875 L 3.699219 11.101562 C 3.699219 7.699219 6.46875 4.933594 9.867188 4.933594 L 27.136719 4.933594 C 30.539062 4.933594 33.304688 7.699219 33.304688 11.101562 Z M 30.839844 11.101562 C 30.839844 9.0625 29.179688 7.402344 27.136719 7.402344 L 9.867188 7.402344 C 7.828125 7.402344 6.167969 9.0625 6.167969 11.101562 L 6.167969 20.96875 C 6.167969 23.011719 7.828125 24.671875 9.867188 24.671875 L 27.136719 24.671875 C 29.179688 24.671875 30.839844 23.011719 30.839844 20.96875 Z M 30.839844 11.101562 "/></g></g></svg>