<svg width="16" height="16" viewBox="0 0 16 16" fill="none" xmlns="http://www.w3.org/2000/svg">
<g clip-path="url(#clip0_175_4923)">
<path d="M9.76542 3.662C10.3474 3.19467 10.9467 2.56667 11.2507 1.80267C11.4094 1.404 11.3581 0.951333 11.1141 0.592C10.8627 0.221333 10.4461 0 10.0001 0H6.00008C5.55408 0 5.13742 0.221333 4.88608 0.592C4.64208 0.951333 4.59142 1.404 4.74942 1.80267C5.05342 2.566 5.65275 3.19467 6.23475 3.662C3.13075 4.814 0.666748 8.77267 0.666748 12C0.666748 14.206 2.46075 16 4.66675 16H11.3334C13.5394 16 15.3334 14.206 15.3334 12C15.3334 8.77267 12.8694 4.814 9.76542 3.662ZM10.0114 1.31C9.66742 2.17467 8.61542 2.90533 7.99875 3.25C7.38342 2.908 6.33542 2.18333 5.99941 1.33333L10.0114 1.31ZM11.3327 14.6667H4.66675C3.19608 14.6667 2.00008 13.4707 2.00008 12C2.00008 8.50467 5.14008 4.66667 8.00008 4.66667C10.8601 4.66667 14.0001 8.50467 14.0001 12C14.0001 13.4707 12.8034 14.6667 11.3327 14.6667ZM7.99942 14.6667C7.63142 14.6667 7.33275 14.368 7.33275 14V13.3333H7.15408C6.44208 13.3333 5.77875 12.9507 5.42208 12.334C5.23808 12.0153 5.34675 11.608 5.66542 11.4233C5.98275 11.2387 6.39142 11.3473 6.57608 11.6667C6.69475 11.872 6.91675 12 7.15408 12H8.66608C9.03342 12 9.33275 11.7007 9.33275 11.3333C9.33275 11.0813 9.15208 10.868 8.90342 10.8267L6.87542 10.4887C5.98142 10.34 5.33208 9.57333 5.33208 8.66667C5.33208 7.564 6.22942 6.66667 7.33208 6.66667V6C7.33208 5.632 7.63075 5.33333 7.99875 5.33333C8.36675 5.33333 8.66542 5.632 8.66542 6V6.66667H8.84408C9.55542 6.66667 10.2194 7.05 10.5761 7.66667C10.7601 7.98533 10.6514 8.39267 10.3327 8.57733C10.0147 8.762 9.60675 8.65333 9.42208 8.334C9.30275 8.128 9.08142 8.00067 8.84408 8.00067H7.33208C6.96475 8.00067 6.66542 8.3 6.66542 8.66733C6.66542 8.91933 6.84608 9.13267 7.09475 9.174L9.12275 9.512C10.0167 9.66067 10.6661 10.4273 10.6661 11.334C10.6661 12.4367 9.76875 13.334 8.66608 13.334V14.0007C8.66608 14.3687 8.36742 14.6667 7.99942 14.6667Z" fill="#686868"/>
</g>
<defs>
<clipPath id="clip0_175_4923">
<rect width="16" height="16" fill="white"/>
</clipPath>
</defs>
</svg>
