<svg width="20" height="20" viewBox="0 0 20 20" fill="none" xmlns="http://www.w3.org/2000/svg">
<g clip-path="url(#clip0_155_1389)">
<path d="M19.1557 4.54252C19.1324 4.39502 18.8958 3.07002 17.9357 2.10252C16.9716 1.15919 15.6416 0.925855 15.4932 0.902522C15.2957 0.870022 15.0941 0.911688 14.9249 1.01669C14.8266 1.07752 12.4632 2.55752 7.66491 7.32169C2.61241 12.3392 1.28742 14.3442 1.23325 14.4267C1.15742 14.5434 1.11158 14.6775 1.10075 14.8159L0.834915 18.2084C0.816582 18.4517 0.904082 18.69 1.07658 18.8625C1.23325 19.0192 1.44575 19.1067 1.66658 19.1067C1.68742 19.1067 1.70908 19.1067 1.73075 19.1042L5.14825 18.8409C5.28575 18.83 5.41825 18.7859 5.53408 18.7117C5.61741 18.6584 7.63658 17.3425 12.6882 12.3267C17.4874 7.56169 18.9782 5.21419 19.0399 5.11669C19.1466 4.94585 19.1882 4.74169 19.1566 4.54252H19.1557ZM11.5141 11.1442C7.40575 15.2234 5.35241 16.7942 4.79408 17.1967L2.57325 17.3684L2.74492 15.175C3.15492 14.615 4.73908 12.5759 8.83825 8.50502C10.1074 7.24502 11.2016 6.22086 12.1232 5.39752C12.1316 5.39919 12.1399 5.40086 12.1491 5.40252C12.1591 5.40419 13.1799 5.58085 13.8332 6.21919C14.4766 6.84835 14.6574 7.82752 14.6624 7.85169C14.6624 7.85502 14.6641 7.85752 14.6641 7.86085C13.8316 8.78002 12.7932 9.87419 11.5141 11.1442ZM15.9382 6.40752C15.7391 5.96252 15.4407 5.45919 14.9991 5.02752C14.5624 4.60002 14.0541 4.31002 13.6041 4.11669C14.5532 3.32502 15.1941 2.85335 15.5282 2.61919C15.8774 2.72252 16.4024 2.93336 16.7624 3.28586C17.1399 3.66586 17.3416 4.18669 17.4374 4.51002C17.1999 4.84336 16.7282 5.47585 15.9391 6.40836L15.9382 6.40752Z" fill="#686868"/>
</g>
<defs>
<clipPath id="clip0_155_1389">
<rect width="20" height="20" fill="white"/>
</clipPath>
</defs>
</svg>
