<svg xmlns="http://www.w3.org/2000/svg" xmlns:xlink="http://www.w3.org/1999/xlink" width="50" zoomAndPan="magnify" viewBox="0 0 37.5 37.499999" height="50" preserveAspectRatio="xMidYMid meet" version="1.2"><g id="fefbefd5ef"><path style="fill:none;stroke-width:2;stroke-linecap:round;stroke-linejoin:round;stroke:#686868;stroke-opacity:1;stroke-miterlimit:4;" d="M 3.500458 11.989455 L 3.500458 14.499758 C 3.500458 17.79885 3.500458 19.448395 4.524678 20.476123 C 5.548898 21.500971 7.201421 21.500971 10.500729 21.500971 L 14.500065 21.500971 C 17.799373 21.500971 19.449027 21.500971 20.476116 20.476123 C 21.500336 19.448395 21.500336 17.79885 21.500336 14.499758 L 21.500336 11.989455 C 21.500336 10.308243 21.500336 9.467637 21.144585 8.739303 C 20.788833 8.01097 20.126102 7.495667 18.797772 6.465061 L 16.798105 4.907636 C 14.732451 3.304151 13.699624 2.500969 12.500397 2.500969 C 11.298301 2.500969 10.265474 3.304151 8.202689 4.907636 L 6.203022 6.465061 C 4.874692 7.495667 4.211961 8.01097 3.85621 8.739303 C 3.500458 9.467637 3.500458 10.308243 3.500458 11.989455 Z M 3.500458 11.989455 " transform="matrix(1.361554,0,0,1.356908,1.390186,2.071259)"/><path style="fill:none;stroke-width:2;stroke-linecap:round;stroke-linejoin:round;stroke:#686868;stroke-opacity:1;stroke-miterlimit:4;" d="M 12.500397 17.499456 L 12.500397 13.500819 " transform="matrix(1.361554,0,0,1.356908,1.390186,2.071259)"/></g></svg>