<svg xmlns="http://www.w3.org/2000/svg" xmlns:xlink="http://www.w3.org/1999/xlink" width="50" zoomAndPan="magnify" viewBox="0 0 37.5 37.499999" height="50" preserveAspectRatio="xMidYMid meet" version="1.2"><defs><clipPath id="e0626f3f59"><path d="M 4.929688 5.8125 L 32 5.8125 L 32 30.976562 L 4.929688 30.976562 Z M 4.929688 5.8125 "/></clipPath></defs><g id="ffdf834422"><g clip-rule="nonzero" clip-path="url(#e0626f3f59)"><path style=" stroke:none;fill-rule:nonzero;fill:#686868;fill-opacity:1;" d="M 29.199219 5.8125 L 15.363281 5.8125 L 15.363281 10.136719 L 17.09375 10.136719 L 17.09375 7.542969 L 29.199219 7.542969 C 29.71875 7.542969 30.066406 7.886719 30.066406 8.40625 L 30.066406 17.917969 C 30.066406 18.4375 29.71875 18.785156 29.199219 18.785156 L 17.957031 18.785156 L 17.957031 24.839844 L 13.375 24.839844 L 10.175781 27.34375 L 10.175781 24.839844 L 7.582031 24.839844 C 7.0625 24.839844 6.714844 24.492188 6.714844 23.972656 L 6.714844 14.460938 C 6.714844 13.941406 7.0625 13.597656 7.582031 13.597656 L 18.824219 13.597656 L 18.824219 11.867188 L 7.582031 11.867188 C 6.109375 11.867188 4.988281 12.992188 4.988281 14.460938 L 4.988281 23.972656 C 4.988281 25.441406 6.109375 26.566406 7.582031 26.566406 L 8.445312 26.566406 L 8.445312 30.976562 L 13.894531 26.566406 L 19.6875 26.566406 L 19.6875 20.515625 L 29.199219 20.515625 C 30.671875 20.515625 31.792969 19.390625 31.792969 17.917969 L 31.792969 8.40625 C 31.792969 6.9375 30.671875 5.8125 29.199219 5.8125 Z M 29.199219 5.8125 "/></g><path style=" stroke:none;fill-rule:nonzero;fill:#686868;fill-opacity:1;" d="M 8.617188 23.023438 L 10.695312 23.023438 L 11.214844 21.636719 L 13.894531 21.636719 L 14.414062 23.023438 L 16.488281 23.023438 L 13.546875 15.324219 L 11.472656 15.324219 Z M 12.511719 17.488281 L 13.375 20.167969 L 11.644531 20.167969 Z M 12.511719 17.488281 "/><path style=" stroke:none;fill-rule:nonzero;fill:#686868;fill-opacity:1;" d="M 20.550781 17.917969 C 21.503906 17.917969 22.800781 17.660156 24.011719 17.054688 C 25.222656 17.660156 26.605469 17.917969 27.46875 17.917969 L 27.46875 16.191406 C 27.46875 16.191406 26.605469 16.191406 25.65625 15.84375 C 26.691406 14.808594 27.46875 13.25 27.46875 11 L 27.46875 10.136719 L 24.875 10.136719 L 24.875 8.40625 L 23.148438 8.40625 L 23.148438 10.136719 L 20.550781 10.136719 L 20.550781 11.867188 L 25.65625 11.867188 C 25.480469 13.421875 24.789062 14.375 24.011719 14.980469 C 23.492188 14.546875 22.972656 13.941406 22.628906 13.164062 L 20.8125 13.164062 C 21.15625 14.289062 21.675781 15.152344 22.367188 15.84375 C 21.503906 16.191406 20.726562 16.191406 20.550781 16.191406 Z M 20.550781 17.917969 "/></g></svg>