<svg xmlns="http://www.w3.org/2000/svg" xmlns:xlink="http://www.w3.org/1999/xlink" width="50" zoomAndPan="magnify" viewBox="0 0 37.5 37.499999" height="50" preserveAspectRatio="xMidYMid meet" version="1.2"><defs><clipPath id="4a9d35a136"><path d="M 5.328125 5.328125 L 31.972656 5.328125 L 31.972656 31.972656 L 5.328125 31.972656 Z M 5.328125 5.328125 "/></clipPath></defs><g id="481a53538d"><g clip-rule="nonzero" clip-path="url(#4a9d35a136)"><path style=" stroke:none;fill-rule:nonzero;fill:#686868;fill-opacity:1;" d="M 11.605469 18.5 C 11.605469 22.292969 14.707031 25.398438 18.5 25.398438 C 22.292969 25.398438 25.398438 22.292969 25.398438 18.5 C 25.398438 14.707031 22.292969 11.605469 18.5 11.605469 C 14.707031 11.605469 11.605469 14.707031 11.605469 18.5 Z M 22.5625 18.5 C 22.5625 20.734375 20.734375 22.5625 18.5 22.5625 C 16.269531 22.5625 14.441406 20.734375 14.441406 18.5 C 14.441406 16.269531 16.269531 14.441406 18.5 14.441406 C 20.734375 14.441406 22.5625 16.269531 22.5625 18.5 Z M 29.90625 25.085938 C 29.730469 25.390625 29.339844 25.496094 29.035156 25.320312 L 26.703125 23.976562 C 26.398438 23.800781 26.292969 23.40625 26.46875 23.101562 C 26.644531 22.796875 27.039062 22.691406 27.34375 22.867188 L 29.675781 24.214844 C 29.980469 24.390625 30.082031 24.78125 29.90625 25.085938 Z M 8.660156 19.140625 L 5.96875 19.140625 C 5.617188 19.140625 5.328125 18.851562 5.328125 18.5 C 5.328125 18.148438 5.617188 17.863281 5.96875 17.863281 L 8.660156 17.863281 C 9.011719 17.863281 9.296875 18.148438 9.296875 18.5 C 9.296875 18.851562 9.011719 19.140625 8.660156 19.140625 Z M 11.679688 7.96875 C 11.503906 7.664062 11.609375 7.269531 11.914062 7.09375 C 12.21875 6.917969 12.613281 7.023438 12.789062 7.328125 L 14.132812 9.660156 C 14.308594 9.964844 14.203125 10.355469 13.902344 10.53125 C 13.59375 10.707031 13.203125 10.601562 13.027344 10.296875 Z M 25.320312 7.96875 L 23.976562 10.296875 C 23.800781 10.601562 23.40625 10.707031 23.101562 10.53125 C 22.796875 10.355469 22.691406 9.964844 22.867188 9.660156 L 24.214844 7.328125 C 24.390625 7.023438 24.78125 6.917969 25.085938 7.09375 C 25.390625 7.269531 25.496094 7.664062 25.320312 7.96875 Z M 17.863281 8.660156 L 17.863281 5.96875 C 17.863281 5.617188 18.148438 5.328125 18.5 5.328125 L 18.515625 5.328125 C 18.859375 5.335938 19.140625 5.621094 19.140625 5.96875 L 19.140625 8.660156 C 19.140625 9.011719 18.851562 9.300781 18.5 9.300781 C 18.148438 9.300781 17.863281 9.011719 17.863281 8.660156 Z M 26.46875 13.898438 C 26.292969 13.597656 26.398438 13.203125 26.703125 13.027344 L 29.035156 11.679688 C 29.339844 11.503906 29.730469 11.609375 29.90625 11.914062 C 30.082031 12.21875 29.980469 12.613281 29.675781 12.789062 L 27.34375 14.136719 C 27.039062 14.3125 26.644531 14.203125 26.46875 13.898438 Z M 31.671875 18.5 C 31.671875 18.851562 31.386719 19.140625 31.03125 19.140625 L 28.34375 19.140625 C 27.988281 19.140625 27.703125 18.851562 27.703125 18.5 C 27.703125 18.148438 27.988281 17.863281 28.34375 17.863281 L 31.03125 17.863281 C 31.386719 17.863281 31.671875 18.148438 31.671875 18.5 Z M 25.320312 29.035156 C 25.496094 29.339844 25.390625 29.734375 25.085938 29.910156 C 24.78125 30.085938 24.390625 29.980469 24.214844 29.675781 L 22.867188 27.34375 C 22.691406 27.039062 22.796875 26.644531 23.101562 26.46875 C 23.40625 26.292969 23.800781 26.398438 23.976562 26.703125 Z M 19.140625 28.34375 L 19.140625 31.035156 C 19.140625 31.386719 18.851562 31.671875 18.5 31.671875 C 18.148438 31.671875 17.863281 31.386719 17.863281 31.035156 L 17.863281 28.34375 C 17.863281 27.992188 18.148438 27.703125 18.5 27.703125 C 18.851562 27.703125 19.140625 27.992188 19.140625 28.34375 Z M 10.53125 13.898438 C 10.355469 14.203125 9.964844 14.308594 9.65625 14.132812 L 7.328125 12.789062 C 7.023438 12.613281 6.917969 12.21875 7.09375 11.914062 C 7.269531 11.609375 7.660156 11.503906 7.96875 11.679688 L 10.296875 13.027344 C 10.601562 13.203125 10.707031 13.597656 10.53125 13.898438 Z M 14.132812 27.34375 L 12.789062 29.675781 C 12.613281 29.976562 12.21875 30.085938 11.914062 29.910156 C 11.609375 29.734375 11.503906 29.339844 11.679688 29.035156 L 13.027344 26.703125 C 13.203125 26.398438 13.597656 26.292969 13.902344 26.46875 C 14.203125 26.644531 14.308594 27.039062 14.132812 27.34375 Z M 10.53125 23.101562 C 10.707031 23.40625 10.601562 23.800781 10.296875 23.976562 L 7.96875 25.320312 C 7.660156 25.496094 7.269531 25.390625 7.09375 25.085938 C 6.917969 24.78125 7.023438 24.386719 7.328125 24.210938 L 9.65625 22.867188 C 9.964844 22.691406 10.355469 22.796875 10.53125 23.101562 Z M 10.53125 23.101562 "/></g></g></svg>