<svg width="45" height="45" viewBox="0 0 45 45" fill="none" xmlns="http://www.w3.org/2000/svg">
<g clip-path="url(#clip0_156_1770)">
<path d="M38.3915 6.6085C34.1306 2.34668 28.4862 0 22.5 0C16.5138 0 10.8694 2.34668 6.6085 6.6085C2.34668 10.8694 0 16.5138 0 22.5C0 28.4862 2.34668 34.1306 6.6085 38.3915C10.8694 42.6533 16.5138 45 22.5 45C28.4862 45 34.1306 42.6533 38.3915 38.3915C42.6533 34.1306 45 28.4862 45 22.5C45 16.5138 42.6533 10.8694 38.3915 6.6085ZM5.78057 33.213C3.7916 30.1201 2.63672 26.4428 2.63672 22.5C2.63672 11.5471 11.5471 2.63672 22.5 2.63672C28.5653 2.63672 34.0031 5.37012 37.6497 9.66885L32.661 13.3541C32.3578 13.2996 32.0467 13.2715 31.7285 13.2715H29.6376L27.3876 11.0206C27.1397 10.7736 26.8049 10.6348 26.4551 10.6348H18.5449C18.1951 10.6348 17.8603 10.7736 17.6124 11.0206L15.3624 13.2715H13.2715C10.3641 13.2715 7.99805 15.6375 7.99805 18.5449V29.0918C7.99805 29.8556 8.16152 30.5815 8.45508 31.2372L5.78057 33.213ZM24.7141 19.2252C24.082 18.7962 23.3199 18.5449 22.5 18.5449C20.3192 18.5449 18.5449 20.3192 18.5449 22.5C18.5449 22.9017 18.6065 23.2892 18.7184 23.6547L16.5234 25.2764C16.1295 24.432 15.9082 23.4917 15.9082 22.5C15.9082 18.8653 18.8653 15.9082 22.5 15.9082C24.1937 15.9082 25.7389 16.5513 26.9073 17.6049L24.7141 19.2252ZM22.5 42.3633C16.4347 42.3633 10.9969 39.6299 7.35029 35.3312L39.2194 11.787C41.2084 14.8799 42.3633 18.5572 42.3633 22.5C42.3633 33.4529 33.4529 42.3633 22.5 42.3633Z" fill="#686868"/>
<path d="M29.0905 22.5483C29.0643 26.1608 26.1184 29.0918 22.4999 29.0918C21.8429 29.0918 21.2086 28.9939 20.6093 28.8141L13.1003 34.3617C13.1572 34.3635 13.2141 34.3652 13.2714 34.3652H31.7284C34.6358 34.3652 37.0018 31.9992 37.0018 29.0918V18.5449C37.0018 17.9701 36.9093 17.4165 36.7384 16.898L29.0905 22.5483Z" fill="#686868"/>
</g>
<defs>
<clipPath id="clip0_156_1770">
<rect width="45" height="45" fill="white"/>
</clipPath>
</defs>
</svg>
