<svg xmlns="http://www.w3.org/2000/svg" xmlns:xlink="http://www.w3.org/1999/xlink" width="50" zoomAndPan="magnify" viewBox="0 0 37.5 37.499999" height="50" preserveAspectRatio="xMidYMid meet" version="1.2"><defs><clipPath id="a5e3ac8e25"><path d="M 3.699219 3.699219 L 33.304688 3.699219 L 33.304688 33.304688 L 3.699219 33.304688 Z M 3.699219 3.699219 "/></clipPath></defs><g id="51c20c294e"><g clip-rule="nonzero" clip-path="url(#a5e3ac8e25)"><path style=" stroke:none;fill-rule:nonzero;fill:#686868;fill-opacity:1;" d="M 32.839844 12.132812 L 31.171875 8.648438 C 30.738281 7.746094 29.949219 7.046875 29 6.734375 L 21.234375 4.144531 C 19.472656 3.554688 17.535156 3.554688 15.773438 4.144531 L 8.003906 6.734375 C 7.058594 7.046875 6.265625 7.746094 5.835938 8.648438 L 4.25 11.988281 C 3.660156 12.964844 3.550781 14.136719 3.945312 15.207031 C 4.324219 16.242188 5.132812 17.046875 6.167969 17.421875 L 6.160156 25.210938 C 6.160156 27.875 7.855469 30.226562 10.378906 31.066406 L 15.761719 32.863281 C 16.644531 33.15625 17.566406 33.304688 18.492188 33.304688 C 19.417969 33.304688 20.34375 33.15625 21.222656 32.863281 L 26.613281 31.066406 C 29.132812 30.226562 30.828125 27.878906 30.832031 25.21875 L 30.835938 17.425781 C 31.878906 17.058594 32.699219 16.257812 33.082031 15.214844 C 33.472656 14.15625 33.363281 12.996094 32.839844 12.132812 Z M 16.554688 6.484375 C 17.8125 6.066406 19.195312 6.066406 20.453125 6.484375 L 25.691406 8.230469 L 18.511719 10.636719 L 11.316406 8.230469 Z M 6.417969 13.15625 L 8.054688 9.726562 C 8.117188 9.757812 16.761719 12.652344 16.761719 12.652344 L 14.761719 16.671875 C 14.46875 17.164062 13.855469 17.390625 13.316406 17.207031 L 7.046875 15.117188 C 6.679688 14.996094 6.394531 14.71875 6.257812 14.355469 C 6.125 13.992188 6.164062 13.59375 6.417969 13.160156 Z M 11.15625 28.726562 C 9.640625 28.222656 8.625 26.8125 8.628906 25.214844 L 8.632812 18.246094 L 12.535156 19.546875 C 14.191406 20.101562 15.976562 19.441406 16.925781 17.855469 L 17.265625 17.167969 L 17.261719 30.714844 C 17.019531 30.667969 16.777344 30.601562 16.542969 30.523438 L 11.160156 28.730469 Z M 25.832031 28.726562 L 20.441406 30.523438 C 20.207031 30.601562 19.96875 30.667969 19.726562 30.714844 L 19.730469 17.152344 L 20.125 17.941406 C 20.8125 19.085938 22.015625 19.742188 23.285156 19.742188 C 23.679688 19.742188 24.078125 19.679688 24.46875 19.546875 L 28.367188 18.25 L 28.363281 25.21875 C 28.363281 26.8125 27.34375 28.222656 25.832031 28.726562 Z M 30.765625 14.363281 C 30.636719 14.714844 30.359375 14.984375 30.003906 15.105469 L 23.691406 17.207031 C 23.148438 17.390625 22.539062 17.164062 22.289062 16.757812 L 20.246094 12.660156 C 20.246094 12.660156 28.890625 9.757812 28.949219 9.726562 L 30.667969 13.304688 C 30.859375 13.628906 30.894531 14.011719 30.765625 14.363281 Z M 30.765625 14.363281 "/></g></g></svg>