<svg width="16" height="16" viewBox="0 0 16 16" fill="none" xmlns="http://www.w3.org/2000/svg">
<g clip-path="url(#clip0_175_4935)">
<path d="M15.6073 10.5773C15.3613 10.2927 15.0293 10.106 14.6667 10.0347V9.66667C14.6667 8.01267 13.3207 6.66667 11.6667 6.66667C10.0127 6.66667 8.66667 8.01267 8.66667 9.66667V10.0347C8.304 10.106 7.972 10.2927 7.726 10.5773C7.40933 10.944 7.268 11.4293 7.338 11.9087L7.68733 14.2907C7.83067 15.2653 8.68133 16 9.666 16H13.666C14.6507 16 15.5013 15.2653 15.6447 14.2907L15.994 11.9087C16.064 11.4293 15.9233 10.944 15.606 10.5773H15.6073ZM11.6667 8C12.5853 8 13.3333 8.748 13.3333 9.66667V10H10V9.66667C10 8.748 10.748 8 11.6667 8ZM14.3267 14.0967C14.2787 14.4213 13.9953 14.6667 13.6667 14.6667H9.66667C9.338 14.6667 9.05467 14.4213 9.00667 14.0973L8.65733 11.7153C8.638 11.584 8.698 11.492 8.73533 11.4487C8.77267 11.406 8.85467 11.3333 8.98733 11.3333H14.3467C14.4793 11.3333 14.5613 11.4053 14.5987 11.4487C14.636 11.492 14.696 11.584 14.6767 11.7153L14.3267 14.0967ZM2.66667 3C2.66667 2.448 3.11467 2 3.66667 2C4.21867 2 4.66667 2.448 4.66667 3C4.66667 3.552 4.21867 4 3.66667 4C3.11467 4 2.66667 3.552 2.66667 3ZM5.33333 3C5.33333 2.448 5.78133 2 6.33333 2C6.88533 2 7.33333 2.448 7.33333 3C7.33333 3.552 6.88533 4 6.33333 4C5.78133 4 5.33333 3.552 5.33333 3ZM5.33333 13.3333H3.33333C2.23067 13.3333 1.33333 12.436 1.33333 11.3333V6H14.6667V6.66667C14.6667 7.03467 14.9653 7.33333 15.3333 7.33333C15.7013 7.33333 16 7.03467 16 6.66667V3.33333C16 1.49533 14.5047 0 12.6667 0H3.33333C1.49533 0 0 1.49533 0 3.33333V11.3333C0 13.1713 1.49533 14.6667 3.33333 14.6667H5.33333C5.70133 14.6667 6 14.368 6 14C6 13.632 5.70133 13.3333 5.33333 13.3333ZM3.33333 1.33333H12.6667C13.7693 1.33333 14.6667 2.23067 14.6667 3.33333V4.66667H1.33333V3.33333C1.33333 2.23067 2.23067 1.33333 3.33333 1.33333Z" fill="#686868"/>
</g>
<defs>
<clipPath id="clip0_175_4935">
<rect width="16" height="16" fill="white"/>
</clipPath>
</defs>
</svg>
