<svg width="22" height="22" viewBox="0 0 22 22" fill="none" xmlns="http://www.w3.org/2000/svg">
<g clip-path="url(#clip0_136_1081)">
<path d="M8.25 20.1667C8.25 21.1796 7.42958 22 6.41667 22C5.40375 22 4.58333 21.1796 4.58333 20.1667C4.58333 19.1537 5.40375 18.3333 6.41667 18.3333C7.42958 18.3333 8.25 19.1537 8.25 20.1667ZM15.5833 18.3333C14.5704 18.3333 13.75 19.1537 13.75 20.1667C13.75 21.1796 14.5704 22 15.5833 22C16.5963 22 17.4167 21.1796 17.4167 20.1667C17.4167 19.1537 16.5963 18.3333 15.5833 18.3333ZM4.96742 11.9167L4.10483 4.58333H9.22992C9.30967 3.94258 9.47008 3.32842 9.70475 2.75H3.8885L3.85092 2.42825C3.68775 1.04317 2.5135 0 1.12017 0H0V1.83333H1.12017C1.58492 1.83333 1.97633 2.18167 2.03042 2.64367L3.48242 14.9884C3.64558 16.3735 4.81983 17.4167 6.21317 17.4167H18.3333V15.5833H6.21317C5.74842 15.5833 5.357 15.235 5.30292 14.773L5.18283 13.75H20.0154L20.3482 11.9167H4.96742ZM22 5.5C22 8.53325 19.5333 11 16.5 11C13.4668 11 11 8.53325 11 5.5C11 2.46675 13.4668 0 16.5 0C19.5333 0 22 2.46675 22 5.5ZM20.1667 5.5C20.1667 3.47783 18.5222 1.83333 16.5 1.83333C14.4778 1.83333 12.8333 3.47783 12.8333 5.5C12.8333 7.52217 14.4778 9.16667 16.5 9.16667C18.5222 9.16667 20.1667 7.52217 20.1667 5.5ZM17.4167 2.75H15.5833V5.8795L17.6852 7.98142L18.9814 6.68525L17.4167 5.1205V2.75Z" fill="url(#paint0_linear_136_1081)"/>
</g>
<defs>
<linearGradient id="paint0_linear_136_1081" x1="0" y1="0" x2="24.0896" y2="2.1337" gradientUnits="userSpaceOnUse">
<stop stop-color="#FF0037"/>
<stop offset="1" stop-color="#FF4870"/>
</linearGradient>
<clipPath id="clip0_136_1081">
<rect width="22" height="22" fill="white"/>
</clipPath>
</defs>
</svg>
