<svg width="18" height="18" viewBox="0 0 18 18" fill="none" xmlns="http://www.w3.org/2000/svg">
<g clip-path="url(#clip0_174_2859)">
<path d="M17.2402 4.08845C17.2192 3.9557 17.0063 2.7632 16.1423 1.89245C15.2745 1.04345 14.0775 0.833453 13.944 0.812453C13.7662 0.783203 13.5847 0.820703 13.4325 0.915203C13.344 0.969953 11.217 2.30195 6.8985 6.5897C2.35125 11.1055 1.15875 12.91 1.11 12.9842C1.04175 13.0892 1.0005 13.21 0.99075 13.3345L0.7515 16.3877C0.735 16.6067 0.81375 16.8212 0.969 16.9765C1.11 17.1175 1.30125 17.1962 1.5 17.1962C1.51875 17.1962 1.53825 17.1962 1.55775 17.194L4.6335 16.957C4.75725 16.9472 4.8765 16.9075 4.98075 16.8407C5.05575 16.7927 6.873 15.6085 11.4195 11.0942C15.7387 6.8057 17.0805 4.69295 17.136 4.6052C17.232 4.45145 17.2695 4.2677 17.241 4.08845H17.2402ZM10.3627 10.03C6.66525 13.7012 4.81725 15.115 4.31475 15.4772L2.316 15.6317L2.4705 13.6577C2.8395 13.1537 4.26525 11.3185 7.9545 7.6547C9.09675 6.5207 10.0815 5.59895 10.911 4.85795C10.9185 4.85945 10.926 4.86095 10.9342 4.86245C10.9432 4.86395 11.862 5.02295 12.45 5.59745C13.029 6.1637 13.1917 7.04495 13.1962 7.0667C13.1962 7.0697 13.1977 7.07195 13.1977 7.07495C12.4485 7.9022 11.514 8.88695 10.3627 10.03ZM14.3445 5.76695C14.1652 5.36645 13.8967 4.91345 13.4992 4.52495C13.1062 4.1402 12.6487 3.8792 12.2437 3.7052C13.098 2.9927 13.6748 2.5682 13.9755 2.35745C14.2898 2.45045 14.7622 2.6402 15.0862 2.95745C15.426 3.29945 15.6075 3.7682 15.6937 4.0592C15.48 4.3592 15.0555 4.92845 14.3453 5.7677L14.3445 5.76695Z" fill="#686868"/>
</g>
<defs>
<clipPath id="clip0_174_2859">
<rect width="18" height="18" fill="white"/>
</clipPath>
</defs>
</svg>
