<svg width="16" height="16" viewBox="0 0 16 16" fill="none" xmlns="http://www.w3.org/2000/svg">
<g clip-path="url(#clip0_197_1657)">
<path d="M12.4753 7.99986H9.33335C8.97973 7.99986 8.64059 7.85938 8.39054 7.60934C8.14049 7.35929 8.00002 7.02015 8.00002 6.66653V3.51586C8.00092 3.20919 7.93129 2.90641 7.7965 2.63094C7.66172 2.35547 7.46538 2.11468 7.22268 1.9272C6.99271 1.74507 6.72394 1.61825 6.43715 1.55652C6.15036 1.4948 5.85322 1.49982 5.56868 1.5712C3.95246 1.97241 2.52157 2.91324 1.51267 4.23811C0.503763 5.56297 -0.0227293 7.19251 0.020261 8.85724C0.0632512 10.522 0.673148 12.1222 1.74909 13.3932C2.82503 14.6642 4.30257 15.5299 5.93735 15.8472C7.77542 16.199 9.67845 15.8348 11.2567 14.8291C12.835 13.8235 13.9691 12.2525 14.4267 10.4379C14.4983 10.153 14.5035 9.85539 14.4419 9.56814C14.3803 9.2809 14.2535 9.01165 14.0713 8.78119C13.8816 8.53883 13.6395 8.34261 13.3631 8.20728C13.0866 8.07196 12.7831 8.00104 12.4753 7.99986ZM13.134 10.1119C12.8788 11.1398 12.3551 12.0814 11.6165 12.8405C10.8779 13.5996 9.9509 14.1489 8.93036 14.4322C7.90983 14.7155 6.83236 14.7227 5.80815 14.453C4.78395 14.1832 3.84976 13.6463 3.10116 12.8971C2.35255 12.1478 1.81638 11.2132 1.5475 10.1888C1.27862 9.16436 1.28666 8.0869 1.57082 7.0666C1.85497 6.0463 2.40504 5.11979 3.16475 4.38183C3.92447 3.64386 4.86656 3.12094 5.89468 2.86653C5.98264 2.84456 6.07452 2.84348 6.16296 2.86339C6.25141 2.88331 6.33396 2.92365 6.40402 2.9812C6.48674 3.04427 6.55383 3.12555 6.60008 3.21873C6.64632 3.31192 6.67048 3.4145 6.67068 3.51853V6.66653C6.67068 7.37377 6.95164 8.05205 7.45173 8.55214C7.95183 9.05224 8.63011 9.33319 9.33735 9.33319H12.4787C12.5836 9.33362 12.6871 9.35784 12.7813 9.40403C12.8755 9.45022 12.9581 9.51717 13.0227 9.59986C13.0794 9.67089 13.1188 9.75407 13.138 9.84289C13.1572 9.9317 13.1563 10.0238 13.134 10.1119Z" fill="#686868"/>
<path d="M15.7673 4.96425C15.4603 3.8359 14.8641 2.80725 14.0375 1.98011C13.211 1.15296 12.1827 0.555983 11.0546 0.248255C10.9363 0.216462 10.8144 0.200324 10.6919 0.200255C10.5158 0.198582 10.341 0.231834 10.1778 0.298091C10.0146 0.364347 9.8661 0.462294 9.74094 0.586273C9.61578 0.710251 9.51644 0.857802 9.44864 1.0204C9.38084 1.183 9.34594 1.35742 9.34595 1.53359V4.66692C9.34595 5.19735 9.55666 5.70606 9.93173 6.08113C10.3068 6.4562 10.8155 6.66692 11.3459 6.66692H14.4919C14.6977 6.66494 14.9003 6.61554 15.0839 6.52257C15.2675 6.4296 15.4271 6.29555 15.5505 6.13084C15.6739 5.96613 15.7576 5.7752 15.7952 5.57288C15.8328 5.37055 15.8232 5.16228 15.7673 4.96425ZM14.1019 5.33358H11.3433C11.1665 5.33358 10.9969 5.26335 10.8719 5.13832C10.7469 5.0133 10.6766 4.84373 10.6766 4.66692L10.6713 1.53825C10.6762 1.53473 10.6819 1.53265 10.6879 1.53225H10.7053C11.6133 1.77964 12.4407 2.26086 13.1046 2.92788C13.7686 3.5949 14.246 4.4244 14.4893 5.33358H14.1019Z" fill="#686868"/>
</g>
<defs>
<clipPath id="clip0_197_1657">
<rect width="16" height="16" fill="white"/>
</clipPath>
</defs>
</svg>
