<svg width="16" height="16" viewBox="0 0 16 16" fill="none" xmlns="http://www.w3.org/2000/svg">
<g clip-path="url(#clip0_175_4926)">
<path d="M12.6667 0H3.33333C1.49333 0 0 1.49333 0 3.33333V12.6667C0 14.5067 1.49333 16 3.33333 16H12.6667C14.5067 16 16 14.5067 16 12.6667V3.33333C16 1.49333 14.5067 0 12.6667 0ZM14.6667 12.6667C14.6667 13.7667 13.7667 14.6667 12.6667 14.6667H3.33333C2.23333 14.6667 1.33333 13.7667 1.33333 12.6667V3.33333C1.33333 2.23333 2.23333 1.33333 3.33333 1.33333H12.6667C13.7667 1.33333 14.6667 2.23333 14.6667 3.33333V12.6667ZM3.33333 6.66667C3.33333 6.3 3.63333 6 4 6H10C10.3667 6 10.6667 6.3 10.6667 6.66667C10.6667 7.03333 10.3667 7.33333 10 7.33333H4C3.63333 7.33333 3.33333 7.03333 3.33333 6.66667ZM3.33333 4C3.33333 3.63333 3.63333 3.33333 4 3.33333H8C8.36667 3.33333 8.66667 3.63333 8.66667 4C8.66667 4.36667 8.36667 4.66667 8 4.66667H4C3.63333 4.66667 3.33333 4.36667 3.33333 4ZM12.6667 9.33333C12.6667 9.7 12.3667 10 12 10H4C3.63333 10 3.33333 9.7 3.33333 9.33333C3.33333 8.96667 3.63333 8.66667 4 8.66667H12C12.3667 8.66667 12.6667 8.96667 12.6667 9.33333ZM6.66667 12C6.66667 12.3667 6.36667 12.6667 6 12.6667H4C3.63333 12.6667 3.33333 12.3667 3.33333 12C3.33333 11.6333 3.63333 11.3333 4 11.3333H6C6.36667 11.3333 6.66667 11.6333 6.66667 12Z" fill="#686868"/>
</g>
<defs>
<clipPath id="clip0_175_4926">
<rect width="16" height="16" fill="white"/>
</clipPath>
</defs>
</svg>
