<svg width="16" height="16" viewBox="0 0 16 16" fill="none" xmlns="http://www.w3.org/2000/svg">
<g clip-path="url(#clip0_175_4938)">
<path d="M7.33342 12.0001V11.9048C6.52942 11.6868 5.86008 11.0928 5.57341 10.2835C5.45008 9.93615 5.63208 9.55481 5.97875 9.43281C6.32741 9.30948 6.70742 9.49215 6.82942 9.83815C7.02142 10.3955 7.58342 10.7161 8.16075 10.6668C8.75808 10.6668 9.24408 10.1815 9.24408 9.58348C9.24408 8.98548 8.75875 8.50015 8.16075 8.50015C6.66608 8.50015 5.74675 7.55348 5.75208 6.25015C5.75208 5.24415 6.42008 4.40015 7.33275 4.11348V4.00015C7.33275 3.63148 7.63075 3.33348 7.99941 3.33348C8.36808 3.33348 8.66608 3.63148 8.66608 4.00015V4.10281C9.33275 4.30948 9.88275 4.81948 10.1227 5.49948C10.2461 5.84681 10.0641 6.22815 9.71741 6.35015C9.37008 6.47348 8.98808 6.29148 8.86675 5.94481C8.73742 5.57881 8.38942 5.33348 8.00208 5.33348C7.49675 5.33348 7.08541 5.74481 7.08541 6.25015C7.08142 6.82615 7.43541 7.16681 8.16075 7.16681C9.49341 7.16681 10.5774 8.25081 10.5774 9.58348C10.5774 10.7428 9.75675 11.7121 8.66608 11.9448V12.0001C8.66608 12.3688 8.36808 12.6668 7.99941 12.6668C7.63075 12.6668 7.33275 12.3688 7.33275 12.0001H7.33342ZM14.6667 7.33348C14.2981 7.33348 14.0001 7.63148 14.0001 8.00015C14.0001 12.3735 12.3741 14.0001 8.00008 14.0001C3.62608 14.0001 2.00008 12.3735 2.00008 8.00015C2.00008 3.62681 3.62608 2.00015 8.00008 2.00015C10.7014 2.00015 12.2881 2.60548 13.1501 3.99348C12.7974 3.98748 12.4454 3.96548 12.0947 3.91481C11.7327 3.86548 11.3927 4.11615 11.3401 4.48081C11.2881 4.84548 11.5414 5.18281 11.9061 5.23548C12.3641 5.30148 12.8267 5.33348 13.2881 5.33348C13.7494 5.33348 14.2114 5.30081 14.6694 5.23548C14.9621 5.19348 15.1927 4.96281 15.2354 4.66948C15.3667 3.75281 15.3667 2.82348 15.2354 1.90615C15.1827 1.54148 14.8454 1.28615 14.4807 1.34015C14.1161 1.39281 13.8627 1.73015 13.9147 2.09481C13.9521 2.35815 13.9707 2.62215 13.9834 2.88681C12.8281 1.38815 10.8981 0.667481 8.00008 0.667481C2.86008 0.666814 0.666748 2.86015 0.666748 8.00015C0.666748 13.1401 2.86008 15.3335 8.00008 15.3335C13.1401 15.3335 15.3334 13.1401 15.3334 8.00015C15.3334 7.63148 15.0354 7.33348 14.6667 7.33348Z" fill="#686868"/>
</g>
<defs>
<clipPath id="clip0_175_4938">
<rect width="16" height="16" fill="white"/>
</clipPath>
</defs>
</svg>
