<svg width="22" height="22" viewBox="0 0 22 22" fill="none" xmlns="http://www.w3.org/2000/svg">
<path d="M21.9435 15.8629L20.1358 5.62009C19.749 3.42559 17.8505 1.83334 15.6221 1.83334H6.37846C3.20863 1.83334 2.10313 4.26709 1.8648 5.62009L0.0571286 15.8629C-0.131705 16.9327 0.160712 18.0235 0.859212 18.8577C1.55771 19.69 2.58163 20.1676 3.66788 20.1676H4.58363C5.08963 20.1676 5.5003 19.7578 5.5003 19.2509C5.5003 18.744 5.08963 18.3343 4.58363 18.3343H3.66788C3.1243 18.3343 2.6128 18.095 2.26355 17.6788C1.9143 17.2627 1.76763 16.7173 1.86205 16.1819L3.66971 5.93909C3.72655 5.61459 3.83929 5.31209 3.99513 5.04168L6.13921 16.4322C6.54713 18.5964 8.44096 20.1676 10.6437 20.1676H18.3318C19.419 20.1676 20.4429 19.69 21.1405 18.8577C21.839 18.0244 22.1323 16.9327 21.9435 15.8629ZM19.737 17.6779C19.3878 18.0941 18.8763 18.3333 18.3327 18.3333H10.6446C9.32371 18.3333 8.18705 17.391 7.9423 16.093L5.62221 3.77209C5.8633 3.70334 6.11721 3.66759 6.37754 3.66759H15.6221C16.9586 3.66759 18.098 4.62276 18.33 5.94001L20.1376 16.1828C20.232 16.7182 20.0863 17.2636 19.7361 17.6798L19.737 17.6779ZM9.16696 8.25001C8.66096 8.25001 8.2503 7.83934 8.2503 7.33334C8.2503 6.82734 8.66096 6.41668 9.16696 6.41668H15.5836C16.0896 6.41668 16.5003 6.82734 16.5003 7.33334C16.5003 7.83934 16.0896 8.25001 15.5836 8.25001H9.16696ZM9.83705 11.9167C9.33105 11.9167 8.92038 11.506 8.92038 11C8.92038 10.494 9.33105 10.0833 9.83705 10.0833H16.2537C16.7597 10.0833 17.1704 10.494 17.1704 11C17.1704 11.506 16.7597 11.9167 16.2537 11.9167H9.83705ZM17.8753 14.6667C17.8753 15.1736 17.4646 15.5833 16.9586 15.5833H10.542C10.036 15.5833 9.6253 15.1736 9.6253 14.6667C9.6253 14.1598 10.036 13.75 10.542 13.75H16.9586C17.4646 13.75 17.8753 14.1598 17.8753 14.6667Z" fill="url(#paint0_linear_136_1072)"/>
<defs>
<linearGradient id="paint0_linear_136_1072" x1="0.000976563" y1="1.83334" x2="24.0059" y2="4.38439" gradientUnits="userSpaceOnUse">
<stop stop-color="#FF0037"/>
<stop offset="1" stop-color="#FF4870"/>
</linearGradient>
</defs>
</svg>
