<svg width="22" height="22" viewBox="0 0 22 22" fill="none" xmlns="http://www.w3.org/2000/svg">
<g clip-path="url(#clip0_136_1112)">
<path d="M13.4277 5.03525C14.2279 4.39267 15.052 3.52917 15.47 2.47867C15.6882 1.9305 15.6176 1.30808 15.2821 0.814C14.9365 0.304333 14.3636 0 13.7503 0H8.25033C7.63708 0 7.06416 0.304333 6.71858 0.814C6.38308 1.30808 6.31341 1.9305 6.53066 2.47867C6.94866 3.52825 7.77274 4.39267 8.57299 5.03525C4.30499 6.61925 0.916992 12.0624 0.916992 16.5C0.916992 19.5333 3.38374 22 6.41699 22H15.5837C18.6169 22 21.0837 19.5333 21.0837 16.5C21.0837 12.0624 17.6957 6.61925 13.4277 5.03525ZM13.7659 1.80125C13.2929 2.99017 11.8464 3.99483 10.9985 4.46875C10.1524 3.9985 8.71141 3.00208 8.24941 1.83333L13.7659 1.80125ZM15.5827 20.1667H6.41699C4.39483 20.1667 2.75033 18.5222 2.75033 16.5C2.75033 11.6939 7.06783 6.41667 11.0003 6.41667C14.9328 6.41667 19.2503 11.6939 19.2503 16.5C19.2503 18.5222 17.6049 20.1667 15.5827 20.1667ZM10.9994 20.1667C10.4934 20.1667 10.0827 19.756 10.0827 19.25V18.3333H9.83708C8.85808 18.3333 7.94599 17.8072 7.45558 16.9592C7.20258 16.5211 7.35199 15.961 7.79016 15.7071C8.22649 15.4532 8.78841 15.6026 9.04233 16.0417C9.20549 16.324 9.51074 16.5 9.83708 16.5H11.9161C12.4212 16.5 12.8327 16.0884 12.8327 15.5833C12.8327 15.2368 12.5843 14.9435 12.2424 14.8867L9.45391 14.4219C8.22466 14.2175 7.33183 13.1633 7.33183 11.9167C7.33183 10.4005 8.56566 9.16667 10.0818 9.16667V8.25C10.0818 7.744 10.4925 7.33333 10.9985 7.33333C11.5045 7.33333 11.9152 7.744 11.9152 8.25V9.16667H12.1608C13.1389 9.16667 14.0519 9.69375 14.5423 10.5417C14.7953 10.9798 14.6459 11.5399 14.2077 11.7938C13.7705 12.0478 13.2095 11.8983 12.9556 11.4593C12.7915 11.176 12.4872 11.0009 12.1608 11.0009H10.0818C9.57674 11.0009 9.16516 11.4125 9.16516 11.9176C9.16516 12.2641 9.41358 12.5574 9.75549 12.6143L12.544 13.079C13.7732 13.2834 14.6661 14.3376 14.6661 15.5842C14.6661 17.1004 13.4322 18.3342 11.9161 18.3342V19.2509C11.9161 19.7569 11.5054 20.1667 10.9994 20.1667Z" fill="url(#paint0_linear_136_1112)"/>
</g>
<defs>
<linearGradient id="paint0_linear_136_1112" x1="0.916992" y1="0" x2="23.0266" y2="1.79513" gradientUnits="userSpaceOnUse">
<stop stop-color="#FF0037"/>
<stop offset="1" stop-color="#FF4870"/>
</linearGradient>
<clipPath id="clip0_136_1112">
<rect width="22" height="22" fill="white"/>
</clipPath>
</defs>
</svg>
