<svg xmlns="http://www.w3.org/2000/svg" xmlns:xlink="http://www.w3.org/1999/xlink" width="50" zoomAndPan="magnify" viewBox="0 0 37.5 37.499999" height="50" preserveAspectRatio="xMidYMid meet" version="1.2"><defs><clipPath id="c4d63161b8"><path d="M 4.320312 3.699219 L 32 3.699219 L 32 33.304688 L 4.320312 33.304688 Z M 4.320312 3.699219 "/></clipPath></defs><g id="33a8c83ae7"><g clip-rule="nonzero" clip-path="url(#c4d63161b8)"><path style=" stroke:none;fill-rule:nonzero;fill:#686868;fill-opacity:1;" d="M 28.808594 8.90625 L 21.4375 4.617188 C 20.507812 4.078125 19.453125 3.792969 18.382812 3.792969 C 17.308594 3.792969 16.253906 4.078125 15.324219 4.617188 L 7.953125 8.90625 C 7.027344 9.449219 6.257812 10.230469 5.71875 11.164062 C 5.183594 12.101562 4.898438 13.164062 4.898438 14.246094 L 4.898438 22.828125 C 4.898438 23.910156 5.183594 24.972656 5.71875 25.910156 C 6.257812 26.84375 7.027344 27.625 7.953125 28.167969 L 15.324219 32.457031 C 16.253906 32.996094 17.308594 33.28125 18.382812 33.28125 C 19.453125 33.28125 20.507812 32.996094 21.4375 32.457031 L 28.808594 28.167969 C 29.738281 27.625 30.507812 26.84375 31.042969 25.910156 C 31.582031 24.972656 31.863281 23.910156 31.867188 22.828125 L 31.867188 14.246094 C 31.863281 13.164062 31.582031 12.101562 31.042969 11.164062 C 30.507812 10.230469 29.738281 9.449219 28.808594 8.90625 Z M 16.546875 6.753906 C 17.105469 6.429688 17.738281 6.257812 18.382812 6.257812 C 19.027344 6.257812 19.660156 6.429688 20.214844 6.753906 L 27.585938 11.042969 C 27.773438 11.164062 27.949219 11.296875 28.109375 11.449219 L 20.539062 15.859375 C 19.882812 16.238281 19.140625 16.4375 18.382812 16.4375 C 17.625 16.4375 16.882812 16.238281 16.226562 15.859375 L 8.652344 11.449219 C 8.816406 11.296875 8.992188 11.164062 9.179688 11.042969 Z M 9.179688 26.03125 C 8.621094 25.703125 8.15625 25.238281 7.835938 24.675781 C 7.515625 24.113281 7.34375 23.472656 7.34375 22.824219 L 7.34375 14.246094 C 7.351562 14.023438 7.382812 13.804688 7.429688 13.585938 L 15.003906 17.992188 C 15.671875 18.378906 16.402344 18.640625 17.160156 18.777344 L 17.160156 30.574219 C 16.949219 30.507812 16.742188 30.425781 16.546875 30.320312 Z M 29.421875 22.824219 C 29.417969 23.472656 29.25 24.113281 28.929688 24.675781 C 28.605469 25.238281 28.144531 25.703125 27.585938 26.03125 L 20.214844 30.320312 C 20.019531 30.425781 19.816406 30.507812 19.605469 30.574219 L 19.605469 18.777344 C 20.363281 18.640625 21.09375 18.378906 21.761719 17.992188 L 29.332031 13.585938 C 29.382812 13.804688 29.410156 14.023438 29.421875 14.246094 Z M 29.421875 22.824219 "/></g></g></svg>