<svg xmlns="http://www.w3.org/2000/svg" xmlns:xlink="http://www.w3.org/1999/xlink" width="50" zoomAndPan="magnify" viewBox="0 0 37.5 37.499999" height="50" preserveAspectRatio="xMidYMid meet" version="1.2"><defs><clipPath id="be115356aa"><path d="M 4 2.960938 L 33 2.960938 L 33 34.046875 L 4 34.046875 Z M 4 2.960938 "/></clipPath></defs><g id="acd8af44a8"><path style=" stroke:none;fill-rule:nonzero;fill:#686868;fill-opacity:1;" d="M 18.503906 13.324219 C 17.480469 13.324219 16.476562 13.625 15.625 14.195312 C 14.773438 14.765625 14.109375 15.574219 13.714844 16.519531 C 13.324219 17.46875 13.222656 18.507812 13.421875 19.515625 C 13.621094 20.519531 14.117188 21.441406 14.839844 22.167969 C 15.5625 22.890625 16.488281 23.382812 17.492188 23.585938 C 18.496094 23.785156 19.539062 23.683594 20.484375 23.289062 C 21.433594 22.898438 22.242188 22.234375 22.8125 21.382812 C 23.378906 20.53125 23.683594 19.527344 23.683594 18.503906 C 23.683594 17.128906 23.136719 15.8125 22.167969 14.839844 C 21.195312 13.867188 19.878906 13.324219 18.503906 13.324219 Z M 18.503906 21.09375 C 17.992188 21.09375 17.488281 20.941406 17.0625 20.65625 C 16.636719 20.371094 16.304688 19.96875 16.109375 19.496094 C 15.914062 19.019531 15.863281 18.5 15.960938 17.996094 C 16.0625 17.496094 16.308594 17.035156 16.671875 16.671875 C 17.035156 16.308594 17.496094 16.0625 17.996094 15.960938 C 18.5 15.863281 19.019531 15.914062 19.496094 16.109375 C 19.96875 16.304688 20.371094 16.636719 20.65625 17.0625 C 20.941406 17.488281 21.09375 17.992188 21.09375 18.503906 C 21.09375 19.191406 20.820312 19.847656 20.335938 20.335938 C 19.847656 20.820312 19.191406 21.09375 18.503906 21.09375 Z M 18.503906 21.09375 "/><g clip-rule="nonzero" clip-path="url(#be115356aa)"><path style=" stroke:none;fill-rule:nonzero;fill:#686868;fill-opacity:1;" d="M 30.542969 20.964844 L 29.964844 20.632812 C 30.226562 19.222656 30.226562 17.78125 29.964844 16.371094 L 30.542969 16.039062 C 30.984375 15.785156 31.371094 15.445312 31.683594 15.039062 C 31.992188 14.636719 32.222656 14.171875 32.351562 13.679688 C 32.484375 13.1875 32.519531 12.671875 32.453125 12.164062 C 32.386719 11.660156 32.222656 11.171875 31.964844 10.730469 C 31.710938 10.285156 31.371094 9.898438 30.964844 9.589844 C 30.5625 9.277344 30.097656 9.050781 29.605469 8.917969 C 29.113281 8.785156 28.597656 8.75 28.09375 8.816406 C 27.585938 8.882812 27.097656 9.050781 26.65625 9.304688 L 26.078125 9.636719 C 24.992188 8.707031 23.738281 7.988281 22.390625 7.511719 L 22.390625 6.847656 C 22.390625 5.816406 21.980469 4.828125 21.25 4.097656 C 20.523438 3.371094 19.535156 2.960938 18.503906 2.960938 C 17.472656 2.960938 16.484375 3.371094 15.753906 4.097656 C 15.027344 4.828125 14.617188 5.816406 14.617188 6.847656 L 14.617188 7.511719 C 13.265625 7.988281 12.015625 8.710938 10.929688 9.644531 L 10.351562 9.308594 C 9.457031 8.792969 8.394531 8.652344 7.398438 8.917969 C 6.402344 9.1875 5.554688 9.839844 5.039062 10.730469 C 4.523438 11.625 4.386719 12.6875 4.652344 13.683594 C 4.917969 14.679688 5.570312 15.527344 6.464844 16.042969 L 7.039062 16.375 C 6.78125 17.78125 6.78125 19.226562 7.039062 20.636719 L 6.464844 20.96875 C 5.570312 21.480469 4.917969 22.332031 4.652344 23.328125 C 4.386719 24.324219 4.523438 25.382812 5.039062 26.277344 C 5.554688 27.171875 6.402344 27.820312 7.398438 28.089844 C 8.394531 28.355469 9.457031 28.21875 10.351562 27.703125 L 10.925781 27.367188 C 12.015625 28.300781 13.265625 29.019531 14.617188 29.496094 L 14.617188 30.160156 C 14.617188 31.191406 15.027344 32.179688 15.753906 32.90625 C 16.484375 33.636719 17.472656 34.046875 18.503906 34.046875 C 19.535156 34.046875 20.523438 33.636719 21.25 32.90625 C 21.980469 32.179688 22.390625 31.191406 22.390625 30.160156 L 22.390625 29.496094 C 23.738281 29.019531 24.988281 28.296875 26.078125 27.363281 L 26.65625 27.699219 C 27.550781 28.214844 28.609375 28.351562 29.605469 28.085938 C 30.601562 27.816406 31.453125 27.167969 31.96875 26.273438 C 32.484375 25.378906 32.621094 24.320312 32.355469 23.324219 C 32.085938 22.328125 31.4375 21.476562 30.542969 20.964844 Z M 27.242188 16.074219 C 27.679688 17.664062 27.679688 19.339844 27.242188 20.929688 C 27.164062 21.207031 27.183594 21.5 27.289062 21.765625 C 27.398438 22.03125 27.59375 22.253906 27.84375 22.398438 L 29.246094 23.207031 C 29.542969 23.378906 29.761719 23.664062 29.851562 23.996094 C 29.9375 24.328125 29.890625 24.679688 29.71875 24.980469 C 29.550781 25.277344 29.265625 25.492188 28.933594 25.582031 C 28.601562 25.671875 28.25 25.625 27.949219 25.453125 L 26.542969 24.640625 C 26.296875 24.496094 26.003906 24.4375 25.71875 24.476562 C 25.4375 24.515625 25.171875 24.648438 24.96875 24.855469 C 23.816406 26.03125 22.363281 26.871094 20.769531 27.28125 C 20.492188 27.355469 20.246094 27.515625 20.070312 27.742188 C 19.894531 27.96875 19.796875 28.25 19.796875 28.539062 L 19.796875 30.160156 C 19.796875 30.503906 19.660156 30.832031 19.417969 31.078125 C 19.175781 31.320312 18.84375 31.457031 18.503906 31.457031 C 18.160156 31.457031 17.828125 31.320312 17.585938 31.078125 C 17.34375 30.832031 17.207031 30.503906 17.207031 30.160156 L 17.207031 28.539062 C 17.207031 28.25 17.113281 27.972656 16.933594 27.746094 C 16.757812 27.515625 16.511719 27.355469 16.234375 27.285156 C 14.640625 26.871094 13.1875 26.027344 12.035156 24.851562 C 11.832031 24.644531 11.570312 24.511719 11.285156 24.472656 C 11 24.433594 10.710938 24.492188 10.460938 24.636719 L 9.058594 25.449219 C 8.910156 25.535156 8.746094 25.589844 8.578125 25.613281 C 8.410156 25.636719 8.234375 25.625 8.070312 25.582031 C 7.90625 25.539062 7.75 25.464844 7.617188 25.359375 C 7.480469 25.257812 7.367188 25.125 7.28125 24.980469 C 7.195312 24.832031 7.140625 24.667969 7.117188 24.496094 C 7.097656 24.328125 7.109375 24.15625 7.152344 23.992188 C 7.195312 23.828125 7.273438 23.671875 7.378906 23.539062 C 7.484375 23.402344 7.613281 23.289062 7.761719 23.203125 L 9.167969 22.394531 C 9.414062 22.25 9.609375 22.027344 9.71875 21.761719 C 9.824219 21.496094 9.84375 21.203125 9.765625 20.925781 C 9.328125 19.335938 9.328125 17.660156 9.765625 16.070312 C 9.84375 15.792969 9.824219 15.5 9.714844 15.234375 C 9.605469 14.972656 9.414062 14.75 9.164062 14.605469 L 7.761719 13.796875 C 7.464844 13.625 7.246094 13.339844 7.15625 13.007812 C 7.066406 12.679688 7.113281 12.324219 7.285156 12.027344 C 7.457031 11.730469 7.742188 11.511719 8.074219 11.421875 C 8.40625 11.332031 8.757812 11.378906 9.054688 11.550781 L 10.460938 12.363281 C 10.710938 12.507812 11 12.566406 11.285156 12.53125 C 11.570312 12.492188 11.832031 12.359375 12.035156 12.15625 C 13.1875 10.980469 14.640625 10.140625 16.234375 9.726562 C 16.515625 9.65625 16.761719 9.492188 16.9375 9.265625 C 17.113281 9.035156 17.210938 8.757812 17.207031 8.46875 L 17.207031 6.847656 C 17.207031 6.503906 17.34375 6.171875 17.585938 5.929688 C 17.832031 5.6875 18.160156 5.550781 18.503906 5.550781 C 18.847656 5.550781 19.175781 5.6875 19.417969 5.929688 C 19.664062 6.171875 19.796875 6.503906 19.796875 6.847656 L 19.796875 8.46875 C 19.796875 8.753906 19.894531 9.035156 20.070312 9.261719 C 20.246094 9.488281 20.492188 9.652344 20.769531 9.722656 C 22.367188 10.136719 23.820312 10.976562 24.972656 12.15625 C 25.171875 12.363281 25.4375 12.496094 25.722656 12.53125 C 26.007812 12.570312 26.296875 12.515625 26.546875 12.371094 L 27.949219 11.558594 C 28.097656 11.472656 28.261719 11.414062 28.429688 11.390625 C 28.597656 11.371094 28.769531 11.378906 28.9375 11.421875 C 29.101562 11.46875 29.253906 11.542969 29.390625 11.648438 C 29.527344 11.75 29.640625 11.878906 29.726562 12.027344 C 29.8125 12.175781 29.867188 12.339844 29.890625 12.507812 C 29.910156 12.679688 29.898438 12.851562 29.855469 13.015625 C 29.808594 13.179688 29.734375 13.335938 29.628906 13.46875 C 29.523438 13.605469 29.394531 13.71875 29.246094 13.800781 L 27.839844 14.613281 C 27.59375 14.753906 27.398438 14.976562 27.292969 15.242188 C 27.183594 15.507812 27.164062 15.800781 27.242188 16.074219 Z M 27.242188 16.074219 "/></g></g></svg>