<svg width="22" height="22" viewBox="0 0 22 22" fill="none" xmlns="http://www.w3.org/2000/svg">
<g clip-path="url(#clip0_109_1327)">
<path d="M11.4803 13.75C11.7234 13.75 11.9566 13.8466 12.1285 14.0185C12.3004 14.1904 12.397 14.4236 12.397 14.6667V17.4167C12.397 18.146 12.6867 18.8455 13.2025 19.3612C13.7182 19.8769 14.4177 20.1667 15.147 20.1667H17.4167C18.146 20.1667 18.8455 19.8769 19.3612 19.3612C19.8769 18.8455 20.1667 18.146 20.1667 17.4167V4.58333C20.1667 3.85399 19.8769 3.15451 19.3612 2.63879C18.8455 2.12306 18.146 1.83333 17.4167 1.83333H15.147C14.4177 1.83333 13.7182 2.12306 13.2025 2.63879C12.6867 3.15451 12.397 3.85399 12.397 4.58333V7.33333C12.397 7.57645 12.3004 7.80961 12.1285 7.98151C11.9566 8.15342 11.7234 8.25 11.4803 8.25C11.2372 8.25 11.0041 8.15342 10.8322 7.98151C10.6602 7.80961 10.5637 7.57645 10.5637 7.33333V4.58333C10.5651 3.3682 11.0485 2.20326 11.9077 1.34403C12.7669 0.484808 13.9319 0.00145554 15.147 0H17.4167C18.6318 0.00145554 19.7967 0.484808 20.656 1.34403C21.5152 2.20326 21.9985 3.3682 22 4.58333V17.4167C21.9985 18.6318 21.5152 19.7967 20.656 20.656C19.7967 21.5152 18.6318 21.9985 17.4167 22H15.147C13.9319 21.9985 12.7669 21.5152 11.9077 20.656C11.0485 19.7967 10.5651 18.6318 10.5637 17.4167V14.6667C10.5637 14.4236 10.6602 14.1904 10.8322 14.0185C11.0041 13.8466 11.2372 13.75 11.4803 13.75Z" fill="#686868"/>
<path d="M1.03842 9.05576L5.24225 4.85193C5.32681 4.76438 5.42796 4.69455 5.5398 4.6465C5.65164 4.59846 5.77192 4.57317 5.89363 4.57212C6.01535 4.57106 6.13605 4.59425 6.24871 4.64034C6.36137 4.68643 6.46371 4.7545 6.54978 4.84057C6.63585 4.92664 6.70391 5.02898 6.75001 5.14164C6.7961 5.25429 6.81929 5.375 6.81823 5.49671C6.81717 5.61843 6.79189 5.73871 6.74385 5.85055C6.6958 5.96239 6.62597 6.06354 6.53842 6.1481L2.63159 10.0558L16.4998 10.0833C16.743 10.0833 16.9761 10.1799 17.148 10.3518C17.3199 10.5237 17.4165 10.7569 17.4165 11C17.4165 11.2431 17.3199 11.4763 17.148 11.6482C16.9761 11.8201 16.743 11.9167 16.4998 11.9167L2.5775 11.8883L6.54025 15.8519C6.6278 15.9365 6.69764 16.0376 6.74568 16.1495C6.79372 16.2613 6.81901 16.3816 6.82007 16.5033C6.82112 16.625 6.79793 16.7457 6.75184 16.8584C6.70575 16.971 6.63768 17.0734 6.55161 17.1595C6.46555 17.2455 6.3632 17.3136 6.25054 17.3597C6.13789 17.4058 6.01718 17.429 5.89547 17.4279C5.77375 17.4269 5.65347 17.4016 5.54163 17.3535C5.42979 17.3055 5.32865 17.2356 5.24409 17.1481L1.04025 12.9443C0.524464 12.4288 0.234516 11.7296 0.234173 11.0004C0.233829 10.2712 0.523117 9.57171 1.03842 9.05576Z" fill="#686868"/>
</g>
<defs>
<clipPath id="clip0_109_1327">
<rect width="22" height="22" fill="white" transform="matrix(-1 0 0 1 22 0)"/>
</clipPath>
</defs>
</svg>
