<svg width="22" height="22" viewBox="0 0 22 22" fill="none" xmlns="http://www.w3.org/2000/svg">
<g clip-path="url(#clip0_113_1768)">
<path d="M22 3.66667V16.5C22 18.5249 20.3582 20.1667 18.3333 20.1667H16.4862C16.4862 20.1667 16.4862 20.1667 16.4853 20.1648C17.2516 17.8622 18.3333 13.8472 18.3305 9.50033L18.3333 7.80817C18.5753 7.93008 18.8283 8.02817 19.0877 8.10058C19.6276 8.25183 20.1666 7.85767 20.1666 7.29758C20.1666 6.85942 19.9045 6.44417 19.4874 6.31125C19.1885 6.21592 18.9126 6.05825 18.6734 5.85292C18.3993 5.61825 18.061 5.50092 17.7228 5.50092C17.3845 5.50092 17.0463 5.61825 16.7722 5.85292C16.3588 6.20675 15.8409 6.41758 15.278 6.41758C14.7152 6.41758 14.1973 6.20675 13.7839 5.85292C13.5098 5.61825 13.1715 5.50092 12.8333 5.50092C12.495 5.50092 12.1568 5.61825 11.8827 5.85292C11.4693 6.20675 10.9514 6.41758 10.3885 6.41758C9.82571 6.41758 9.3078 6.20675 8.89438 5.85292C8.6203 5.61825 8.28205 5.50092 7.9438 5.50092C7.60555 5.50092 7.2673 5.61825 6.99321 5.85292L6.98038 5.86392C6.39646 6.358 5.49905 5.92625 5.49905 5.16083V3.66758C5.49996 1.6445 7.14446 0 9.16663 0H18.3333C20.3582 0 22 1.64175 22 3.66667ZM16.499 9.5865C16.499 13.3852 15.6025 16.9473 14.8509 19.2729C14.3238 20.9037 12.8131 22 11.0925 22H3.04513C2.01755 22 1.02113 21.4665 0.444547 20.6067C-0.0880368 19.8147 -0.192537 18.8696 0.156713 18.0171C0.91113 16.1728 2.31638 12.7398 2.36221 9.61125C2.36588 9.34633 2.48413 9.097 2.6858 8.92558C3.12946 8.55708 3.80413 8.25642 4.34771 8.24817C4.91696 8.239 5.48805 8.42783 5.95188 8.81283C6.50921 9.27483 7.30855 9.27483 7.86496 8.81283C8.77246 8.06025 10.0906 8.06025 10.9981 8.81283C11.5545 9.27483 12.3539 9.27483 12.9112 8.81283C13.3796 8.42417 13.9571 8.23625 14.531 8.24908C15.07 8.261 15.6832 8.50942 16.1232 8.87425C16.3487 9.03925 16.4862 9.29683 16.4981 9.57642V9.58742L16.499 9.5865ZM9.6048 12.0276C9.26563 11.8433 8.84396 11.891 8.5543 12.1513L7.1793 13.3852C6.80255 13.7225 6.77138 14.3028 7.10963 14.6795C7.3278 14.9233 7.64588 15.0223 7.9493 14.9701C7.79346 16.0948 7.59821 17.3241 7.35805 18.0437C7.19763 18.524 7.45705 19.0438 7.93738 19.2032C8.03363 19.2353 8.13171 19.2509 8.22705 19.2509C8.61113 19.2509 8.96863 19.008 9.09696 18.6239C9.46271 17.5257 10.0173 13.3247 10.0723 12.9773C10.1328 12.5941 9.9458 12.2128 9.6048 12.0276Z" fill="url(#paint0_linear_113_1768)"/>
</g>
<defs>
<linearGradient id="paint0_linear_113_1768" x1="-0.0463867" y1="0" x2="24.0931" y2="2.14263" gradientUnits="userSpaceOnUse">
<stop stop-color="#FF0037"/>
<stop offset="1" stop-color="#FF4870"/>
</linearGradient>
<clipPath id="clip0_113_1768">
<rect width="22" height="22" fill="white"/>
</clipPath>
</defs>
</svg>
