<svg width="22" height="22" viewBox="0 0 22 22" fill="none" xmlns="http://www.w3.org/2000/svg">
<g clip-path="url(#clip0_113_1777)">
<path d="M8.25 20.1667C8.25 21.1796 7.42958 22 6.41667 22C5.40375 22 4.58333 21.1796 4.58333 20.1667C4.58333 19.1537 5.40375 18.3333 6.41667 18.3333C7.42958 18.3333 8.25 19.1537 8.25 20.1667ZM15.5833 18.3333C14.5704 18.3333 13.75 19.1537 13.75 20.1667C13.75 21.1796 14.5704 22 15.5833 22C16.5963 22 17.4167 21.1796 17.4167 20.1667C17.4167 19.1537 16.5963 18.3333 15.5833 18.3333ZM22 4.58333C22 7.11425 19.9476 9.16667 17.4167 9.16667C14.8858 9.16667 12.8333 7.11425 12.8333 4.58333C12.8333 2.05242 14.8858 0 17.4167 0C19.9476 0 22 2.05242 22 4.58333ZM19.25 6.41667C19.6075 6.05917 19.6075 5.478 19.25 5.1205L18.3333 4.20383V2.75C18.3333 2.244 17.9227 1.83333 17.4167 1.83333C16.9107 1.83333 16.5 2.244 16.5 2.75V4.58333C16.5 4.82625 16.5963 5.06 16.7686 5.23142L17.9538 6.41667C18.3113 6.77417 18.8925 6.77417 19.25 6.41667ZM17.4167 11.1054C13.8783 11.1054 11 8.22617 11 4.68875C11 4.01317 11.1063 3.36233 11.3016 2.75H4.80517L4.76758 2.42733C4.6035 1.04317 3.42925 0 2.03683 0H0.916667C0.40975 0 0 0.410667 0 0.916667C0 1.42267 0.40975 1.83333 0.916667 1.83333H2.03683C2.50158 1.83333 2.893 2.18167 2.94708 2.64275L4.20842 13.3696C4.48067 15.6768 6.43775 17.4176 8.76058 17.4176H17.4167C17.9236 17.4176 18.3333 17.0069 18.3333 16.5009C18.3333 15.9949 17.9236 15.5842 17.4167 15.5842H8.76058C7.57625 15.5842 6.55692 14.8271 6.17558 13.7509H16.6476C18.8247 13.7509 20.7148 12.2018 21.1411 10.0668L21.1787 9.87708C20.1199 10.6471 18.8228 11.1063 17.4167 11.1063V11.1054Z" fill="url(#paint0_linear_113_1777)"/>
</g>
<defs>
<linearGradient id="paint0_linear_113_1777" x1="0" y1="0" x2="24.0896" y2="2.1337" gradientUnits="userSpaceOnUse">
<stop stop-color="#FF0037"/>
<stop offset="1" stop-color="#FF4870"/>
</linearGradient>
<clipPath id="clip0_113_1777">
<rect width="22" height="22" fill="white"/>
</clipPath>
</defs>
</svg>
