<svg width="16" height="16" viewBox="0 0 16 16" fill="none" xmlns="http://www.w3.org/2000/svg">
<path d="M8.00008 0.666504C2.86008 0.666504 0.666748 2.85984 0.666748 7.99984C0.666748 13.1398 2.86008 15.3332 8.00008 15.3332C13.1401 15.3332 15.3334 13.1398 15.3334 7.99984C15.3334 2.85984 13.1401 0.666504 8.00008 0.666504ZM5.13808 13.6498C5.38942 12.6205 6.05142 11.9998 8.00008 11.9998C9.94875 11.9998 10.6114 12.6205 10.8621 13.6498C10.0781 13.8878 9.13275 13.9998 8.00008 13.9998C6.86742 13.9998 5.92208 13.8878 5.13808 13.6498ZM12.0801 13.0865C11.4054 10.9418 9.46942 10.6658 8.00075 10.6658C6.53208 10.6658 4.59608 10.9412 3.92142 13.0865C2.56941 12.1865 2.00075 10.5705 2.00075 7.99917C2.00008 3.62584 3.62608 1.99984 8.00008 1.99984C12.3741 1.99984 14.0001 3.62584 14.0001 7.99984C14.0001 10.5712 13.4314 12.1872 12.0794 13.0872L12.0801 13.0865ZM8.00008 3.99984C6.20608 3.99984 5.33342 4.8725 5.33342 6.6665C5.33342 8.46051 6.20608 9.33317 8.00008 9.33317C9.79408 9.33317 10.6667 8.46051 10.6667 6.6665C10.6667 4.8725 9.79408 3.99984 8.00008 3.99984ZM8.00008 7.99984C6.94075 7.99984 6.66675 7.72584 6.66675 6.6665C6.66675 5.60717 6.94075 5.33317 8.00008 5.33317C9.05942 5.33317 9.33342 5.60717 9.33342 6.6665C9.33342 7.72584 9.05942 7.99984 8.00008 7.99984Z" fill="#686868"/>
</svg>
