<svg width="35" height="32" viewBox="0 0 35 32" fill="none" xmlns="http://www.w3.org/2000/svg">
<path d="M34.3569 8.91669H0.5V7.50002C0.5 3.59427 3.67758 0.416687 7.58333 0.416687H11.1647C11.8206 0.416687 12.4779 0.571104 13.0644 0.864354L17.5354 3.09985C17.7309 3.1976 17.9505 3.2486 18.1687 3.2486H27.4167C30.8365 3.2486 33.6982 5.6881 34.3569 8.91669ZM34.5 11.75V24.5C34.5 28.4058 31.3224 31.5834 27.4167 31.5834H7.58333C3.67758 31.5834 0.5 28.4058 0.5 24.5V11.75H34.5ZM22.7516 18.0967L20.4665 15.8116C18.8317 14.1768 16.1697 14.1768 14.5349 15.8116L12.2484 18.0967C10.9437 19.4128 12.9369 21.4046 14.2516 20.0999L16.0833 18.2681V27.3319C16.0918 29.1849 18.9096 29.1835 18.9167 27.3319V18.2681L20.7484 20.0999C22.0645 21.4046 24.0563 19.4114 22.7516 18.0967Z" fill="#686868"/>
</svg>
