<svg width="22" height="22" viewBox="0 0 22 22" fill="none" xmlns="http://www.w3.org/2000/svg">
<g clip-path="url(#clip0_109_1241)">
<path d="M17.4167 0H4.58333C3.3682 0.00145554 2.20326 0.484808 1.34403 1.34403C0.484808 2.20326 0.00145554 3.3682 0 4.58333L0 17.4167C0.00145554 18.6318 0.484808 19.7967 1.34403 20.656C2.20326 21.5152 3.3682 21.9985 4.58333 22H17.4167C18.6318 21.9985 19.7967 21.5152 20.656 20.656C21.5152 19.7967 21.9985 18.6318 22 17.4167V4.58333C21.9985 3.3682 21.5152 2.20326 20.656 1.34403C19.7967 0.484808 18.6318 0.00145554 17.4167 0ZM6.41667 20.1667V19.25C6.41667 18.0344 6.89955 16.8686 7.75909 16.0091C8.61864 15.1496 9.78442 14.6667 11 14.6667C12.2156 14.6667 13.3814 15.1496 14.2409 16.0091C15.1004 16.8686 15.5833 18.0344 15.5833 19.25V20.1667H6.41667ZM20.1667 17.4167C20.1667 18.146 19.8769 18.8455 19.3612 19.3612C18.8455 19.8769 18.146 20.1667 17.4167 20.1667V19.25C17.4167 17.5482 16.7406 15.9161 15.5373 14.7127C14.3339 13.5094 12.7018 12.8333 11 12.8333C9.29819 12.8333 7.66609 13.5094 6.46273 14.7127C5.25937 15.9161 4.58333 17.5482 4.58333 19.25V20.1667C3.85399 20.1667 3.15451 19.8769 2.63879 19.3612C2.12306 18.8455 1.83333 18.146 1.83333 17.4167V4.58333C1.83333 3.85399 2.12306 3.15451 2.63879 2.63879C3.15451 2.12306 3.85399 1.83333 4.58333 1.83333H17.4167C18.146 1.83333 18.8455 2.12306 19.3612 2.63879C19.8769 3.15451 20.1667 3.85399 20.1667 4.58333V17.4167Z" fill="#686868"/>
<path d="M11.0002 3.66666C10.275 3.66666 9.56605 3.8817 8.96307 4.2846C8.36009 4.6875 7.89013 5.26015 7.61261 5.93015C7.33508 6.60015 7.26247 7.33739 7.40395 8.04865C7.54543 8.75992 7.89465 9.41326 8.40744 9.92605C8.92023 10.4388 9.57357 10.7881 10.2848 10.9295C10.9961 11.071 11.7333 10.9984 12.4033 10.7209C13.0733 10.4434 13.646 9.97339 14.0489 9.37041C14.4518 8.76743 14.6668 8.05852 14.6668 7.33332C14.6668 6.36086 14.2805 5.42823 13.5929 4.7406C12.9053 4.05296 11.9726 3.66666 11.0002 3.66666ZM11.0002 9.16666C10.6376 9.16666 10.2831 9.05913 9.98162 8.85768C9.68013 8.65623 9.44515 8.36991 9.30639 8.03491C9.16762 7.69991 9.13132 7.33129 9.20206 6.97566C9.2728 6.62003 9.44741 6.29336 9.7038 6.03696C9.9602 5.78056 10.2869 5.60596 10.6425 5.53522C10.9981 5.46448 11.3668 5.50078 11.7018 5.63954C12.0367 5.7783 12.3231 6.01329 12.5245 6.31478C12.726 6.61627 12.8335 6.97072 12.8335 7.33332C12.8335 7.81955 12.6403 8.28587 12.2965 8.62968C11.9527 8.9735 11.4864 9.16666 11.0002 9.16666Z" fill="#686868"/>
</g>
<defs>
<clipPath id="clip0_109_1241">
<rect width="22" height="22" fill="white"/>
</clipPath>
</defs>
</svg>
