<svg width="22" height="22" viewBox="0 0 22 22" fill="none" xmlns="http://www.w3.org/2000/svg">
<g clip-path="url(#clip0_113_1792)">
<path d="M22 14.6667C22 17.0784 18.8916 20.3528 17.3488 21.5307C16.8483 21.912 16.1517 21.912 15.6521 21.5307C14.1084 20.3528 11.0009 17.0784 11.0009 14.6667C11.0009 13.1477 12.232 11.9167 13.7509 11.9167C15.2698 11.9167 16.5009 13.1477 16.5009 14.6667C16.5009 13.1477 17.732 11.9167 19.2509 11.9167C20.7698 11.9167 22 13.1477 22 14.6667ZM13.3998 22H4.58333C2.05608 22 0 19.9439 0 17.4167V4.58333C0 2.05608 2.05608 0 4.58333 0H12.8333C15.3606 0 17.4167 2.05608 17.4167 4.58333V10.4821C17.0922 10.6251 16.7805 10.7919 16.5 11.0018C15.9628 10.5976 15.3303 10.318 14.6465 10.1814C14.6502 10.1475 14.6667 10.1182 14.6667 10.0833C14.6667 9.57642 14.256 9.16667 13.75 9.16667H8.25C7.744 9.16667 7.33333 9.57642 7.33333 10.0833C7.33333 10.5903 7.744 11 8.25 11H11.0284C9.9055 11.836 9.16667 13.1624 9.16667 14.6667C9.16667 17.402 11.6692 20.3619 13.3998 22ZM7.33333 5.5C7.33333 6.00692 7.744 6.41667 8.25 6.41667H13.75C14.256 6.41667 14.6667 6.00692 14.6667 5.5C14.6667 4.99308 14.256 4.58333 13.75 4.58333H8.25C7.744 4.58333 7.33333 4.99308 7.33333 5.5ZM5.5 14.6667C5.5 13.9077 4.884 13.2917 4.125 13.2917C3.366 13.2917 2.75 13.9077 2.75 14.6667C2.75 15.4257 3.366 16.0417 4.125 16.0417C4.884 16.0417 5.5 15.4257 5.5 14.6667ZM5.5 10.0833C5.5 9.32433 4.884 8.70833 4.125 8.70833C3.366 8.70833 2.75 9.32433 2.75 10.0833C2.75 10.8423 3.366 11.4583 4.125 11.4583C4.884 11.4583 5.5 10.8423 5.5 10.0833ZM5.5 5.5C5.5 4.741 4.884 4.125 4.125 4.125C3.366 4.125 2.75 4.741 2.75 5.5C2.75 6.259 3.366 6.875 4.125 6.875C4.884 6.875 5.5 6.259 5.5 5.5Z" fill="url(#paint0_linear_113_1792)"/>
</g>
<defs>
<linearGradient id="paint0_linear_113_1792" x1="0" y1="0" x2="24.0905" y2="2.13387" gradientUnits="userSpaceOnUse">
<stop stop-color="#FF0037"/>
<stop offset="1" stop-color="#FF4870"/>
</linearGradient>
<clipPath id="clip0_113_1792">
<rect width="22" height="22" fill="white"/>
</clipPath>
</defs>
</svg>
