<svg width="22" height="22" viewBox="0 0 22 22" fill="none" xmlns="http://www.w3.org/2000/svg">
<g clip-path="url(#clip0_109_1247)">
<path d="M16.0417 1.75726C15.0095 1.77332 13.9998 2.06146 13.1146 2.5926C12.2294 3.12373 11.5 3.87904 11 4.78226C10.5001 3.87904 9.77073 3.12373 8.88551 2.5926C8.00029 2.06146 6.99059 1.77332 5.95838 1.75726C4.31291 1.82875 2.76261 2.54858 1.64618 3.75948C0.529748 4.97037 -0.0620615 6.57391 4.31472e-05 8.21976C4.31472e-05 12.3878 4.38721 16.94 8.06671 20.0264C8.88824 20.7168 9.92695 21.0953 11 21.0953C12.0731 21.0953 13.1118 20.7168 13.9334 20.0264C17.6129 16.94 22 12.3878 22 8.21976C22.0621 6.57391 21.4703 4.97037 20.3539 3.75948C19.2375 2.54858 17.6872 1.82875 16.0417 1.75726ZM12.7555 18.6239C12.2641 19.0377 11.6424 19.2646 11 19.2646C10.3577 19.2646 9.73598 19.0377 9.24463 18.6239C4.53479 14.6722 1.83338 10.8808 1.83338 8.21976C1.77071 7.05992 2.16921 5.92235 2.94196 5.05515C3.71471 4.18796 4.79901 3.6615 5.95838 3.5906C7.11775 3.6615 8.20205 4.18796 8.97479 5.05515C9.74754 5.92235 10.146 7.05992 10.0834 8.21976C10.0834 8.46288 10.18 8.69604 10.3519 8.86794C10.5238 9.03985 10.7569 9.13643 11 9.13643C11.2432 9.13643 11.4763 9.03985 11.6482 8.86794C11.8201 8.69604 11.9167 8.46288 11.9167 8.21976C11.854 7.05992 12.2525 5.92235 13.0253 5.05515C13.798 4.18796 14.8823 3.6615 16.0417 3.5906C17.2011 3.6615 18.2854 4.18796 19.0581 5.05515C19.8309 5.92235 20.2294 7.05992 20.1667 8.21976C20.1667 10.8808 17.4653 14.6722 12.7555 18.6203V18.6239Z" fill="#686868"/>
</g>
<defs>
<clipPath id="clip0_109_1247">
<rect width="22" height="22" fill="white"/>
</clipPath>
</defs>
</svg>
